<svg width="16" height="18" viewBox="0 0 16 18" fill="none" xmlns="http://www.w3.org/2000/svg">
<path fill-rule="evenodd" clip-rule="evenodd" d="M0.628033 0.601016C3.02718 0.205596 5.48986 0 8 0C10.5101 0 12.9728 0.205596 15.372 0.601016C15.7342 0.660721 16 0.973892 16 1.34103V3.62868C16 4.22542 15.7629 4.79771 15.341 5.21967L10.659 9.90165C10.2371 10.3236 10 10.8959 10 11.4926V14.5291C10 15.2126 9.6893 15.859 9.15556 16.286L7.21852 17.8357C6.99339 18.0158 6.68496 18.0509 6.42511 17.926C6.16526 17.8011 6 17.5383 6 17.25V11.4926C6 10.8959 5.76295 10.3236 5.34099 9.90165L0.65901 5.21967C0.237053 4.79771 0 4.22542 0 3.62868V1.34103C0 0.973892 0.26578 0.660721 0.628033 0.601016Z" fill="#CCCCCC"/>
</svg>

