<svg width="40" height="40" viewBox="0 0 40 40" fill="none" xmlns="http://www.w3.org/2000/svg">
<path d="M36.7466 20.2881C36.7466 18.895 36.6299 17.8784 36.3772 16.8242H19.9492V23.1118H29.5921C29.3977 24.6744 28.3479 27.0275 26.0149 28.6088L25.9822 28.8193L31.1764 32.7157L31.5363 32.7505C34.8413 29.7948 36.7466 25.4462 36.7466 20.2881Z" fill="#4285F4"/>
<path d="M19.9473 36.8538C24.6715 36.8538 28.6375 35.3476 31.5343 32.7498L26.013 28.6081C24.5355 29.6058 22.5524 30.3024 19.9473 30.3024C15.3203 30.3024 11.3932 27.3469 9.99326 23.2617L9.78806 23.2786L4.38704 27.3261L4.31641 27.5162C7.1937 33.0509 13.1039 36.8538 19.9473 36.8538Z" fill="#34A853"/>
<path d="M9.99437 23.2615C9.62499 22.2073 9.41122 21.0777 9.41122 19.9106C9.41122 18.7433 9.62499 17.6139 9.97493 16.5597L9.96515 16.3351L4.49643 12.2227L4.3175 12.3051C3.13163 14.6018 2.45117 17.1809 2.45117 19.9106C2.45117 22.6403 3.13163 25.2192 4.3175 27.516L9.99437 23.2615Z" fill="#FBBC05"/>
<path d="M19.9474 9.51993C23.233 9.51993 25.4492 10.8942 26.713 12.0426L31.6511 7.37388C28.6183 4.64421 24.6716 2.96875 19.9474 2.96875C13.1039 2.96875 7.19372 6.77144 4.31641 12.306L9.97385 16.5606C11.3932 12.4755 15.3204 9.51993 19.9474 9.51993Z" fill="#EB4335"/>
</svg>
