<svg width="25" height="24" viewBox="0 0 25 24" fill="none" xmlns="http://www.w3.org/2000/svg">
<path fill-rule="evenodd" clip-rule="evenodd" d="M7.10742 0.072C8.38705 0.0130909 8.79505 0 12.0547 0C15.3143 0 15.7223 0.0141818 17.0009 0.072C18.2794 0.129818 19.1521 0.333818 19.9158 0.629455C20.7154 0.931636 21.4409 1.404 22.0409 2.01491C22.6518 2.61382 23.1231 3.33818 23.4241 4.13891C23.7209 4.90255 23.9238 5.77527 23.9827 7.05164C24.0416 8.33345 24.0547 8.74145 24.0547 12C24.0547 15.2596 24.0405 15.6676 23.9827 16.9473C23.9249 18.2236 23.7209 19.0964 23.4241 19.86C23.123 20.6608 22.651 21.3864 22.0409 21.9862C21.4409 22.5971 20.7154 23.0684 19.9158 23.3695C19.1521 23.6662 18.2794 23.8691 17.0031 23.928C15.7223 23.9869 15.3143 24 12.0547 24C8.79505 24 8.38705 23.9858 7.10742 23.928C5.83105 23.8702 4.95832 23.6662 4.19469 23.3695C3.39387 23.0683 2.66831 22.5963 2.06851 21.9862C1.45801 21.3869 0.985576 20.6617 0.684142 19.8611C0.388506 19.0975 0.185597 18.2247 0.126687 16.9484C0.0677784 15.6665 0.0546875 15.2585 0.0546875 12C0.0546875 8.74036 0.0688693 8.33236 0.126687 7.05382C0.184506 5.77527 0.388506 4.90255 0.684142 4.13891C0.986022 3.33827 1.45882 2.61307 2.0696 2.01382C2.66855 1.40346 3.39338 0.931029 4.1936 0.629455C4.95723 0.333818 5.82996 0.130909 7.10632 0.072H7.10742ZM16.9038 2.232C15.6383 2.17418 15.2587 2.16218 12.0547 2.16218C8.85069 2.16218 8.47105 2.17418 7.2056 2.232C6.03505 2.28545 5.40014 2.48073 4.97687 2.64545C4.41723 2.86364 4.01687 3.12218 3.59687 3.54218C3.19874 3.92951 2.89234 4.40104 2.70014 4.92218C2.53541 5.34545 2.34014 5.98036 2.28669 7.15091C2.22887 8.41636 2.21687 8.796 2.21687 12C2.21687 15.204 2.22887 15.5836 2.28669 16.8491C2.34014 18.0196 2.53541 18.6545 2.70014 19.0778C2.89214 19.5982 3.19869 20.0705 3.59687 20.4578C3.98414 20.856 4.45651 21.1625 4.97687 21.3545C5.40014 21.5193 6.03505 21.7145 7.2056 21.768C8.47105 21.8258 8.8496 21.8378 12.0547 21.8378C15.2598 21.8378 15.6383 21.8258 16.9038 21.768C18.0743 21.7145 18.7092 21.5193 19.1325 21.3545C19.6921 21.1364 20.0925 20.8778 20.5125 20.4578C20.9107 20.0705 21.2172 19.5982 21.4092 19.0778C21.574 18.6545 21.7692 18.0196 21.8227 16.8491C21.8805 15.5836 21.8925 15.204 21.8925 12C21.8925 8.796 21.8805 8.41636 21.8227 7.15091C21.7692 5.98036 21.574 5.34545 21.4092 4.92218C21.1911 4.36255 20.9325 3.96218 20.5125 3.54218C20.1252 3.14408 19.6536 2.83768 19.1325 2.64545C18.7092 2.48073 18.0743 2.28545 16.9038 2.232V2.232ZM10.522 15.6993C11.378 16.0556 12.3311 16.1037 13.2186 15.8353C14.1061 15.567 14.8729 14.9988 15.3881 14.2279C15.9032 13.457 16.1347 12.5311 16.0431 11.6085C15.9515 10.6858 15.5423 9.82361 14.8856 9.16909C14.4669 8.7507 13.9607 8.43034 13.4034 8.23107C12.8461 8.0318 12.2515 7.95858 11.6625 8.01667C11.0735 8.07477 10.5047 8.26274 9.99702 8.56705C9.48937 8.87136 9.0555 9.28445 8.72665 9.77657C8.39781 10.2687 8.18217 10.8276 8.09525 11.413C8.00833 11.9985 8.05231 12.596 8.224 13.1624C8.3957 13.7288 8.69085 14.2501 9.0882 14.6888C9.48555 15.1275 9.97522 15.4726 10.522 15.6993ZM7.69323 7.63855C8.26599 7.06579 8.94595 6.61146 9.69429 6.30149C10.4426 5.99151 11.2447 5.83197 12.0547 5.83197C12.8647 5.83197 13.6668 5.99151 14.4151 6.30148C15.1634 6.61146 15.8434 7.06579 16.4161 7.63855C16.9889 8.2113 17.4432 8.89126 17.7532 9.6396C18.0632 10.3879 18.2227 11.19 18.2227 12C18.2227 12.81 18.0632 13.6121 17.7532 14.3604C17.4432 15.1087 16.9889 15.7887 16.4161 16.3615C15.2594 17.5182 13.6906 18.168 12.0547 18.168C10.4188 18.168 8.84996 17.5182 7.69323 16.3615C6.5365 15.2047 5.88666 13.6359 5.88666 12C5.88666 10.3641 6.5365 8.79528 7.69323 7.63855V7.63855ZM19.5907 6.75055C19.7326 6.61666 19.8462 6.45565 19.9248 6.27706C20.0034 6.09847 20.0454 5.90593 20.0482 5.71083C20.0511 5.51574 20.0147 5.32205 19.9414 5.14125C19.868 4.96044 19.7592 4.79619 19.6212 4.65822C19.4832 4.52026 19.319 4.41137 19.1382 4.33802C18.9574 4.26467 18.7637 4.22834 18.5686 4.23118C18.3735 4.23403 18.1809 4.27599 18.0024 4.35458C17.8238 4.43317 17.6628 4.5468 17.5289 4.68873C17.2685 4.96476 17.1259 5.33141 17.1315 5.71083C17.137 6.09026 17.2902 6.4526 17.5585 6.72092C17.8268 6.98924 18.1892 7.14243 18.5686 7.14796C18.948 7.15349 19.3147 7.01093 19.5907 6.75055V6.75055Z" fill="white"/>
</svg>
