<svg width="126" height="24" viewBox="0 0 126 24" fill="none" xmlns="http://www.w3.org/2000/svg">
<g clip-path="url(#clip0_1145_855)">
<path d="M26.3254 14.0221C26.3321 14.0062 26.3366 13.9902 26.3434 13.9766C26.3569 13.9425 26.3681 13.9107 26.3794 13.8766C26.3906 13.8471 26.3996 13.8153 26.4109 13.7857C26.4177 13.7675 26.4222 13.7516 26.4289 13.7335C26.4424 13.6903 26.4559 13.6471 26.4694 13.6062L26.4739 13.5926C26.6968 12.8676 26.7891 12.1268 26.7621 11.4019C26.7621 11.3882 26.7621 11.3769 26.7621 11.3632C26.7621 11.3269 26.7598 11.2905 26.7576 11.2519C26.7576 11.2178 26.7531 11.1814 26.7508 11.1473C26.7508 11.1337 26.7508 11.1178 26.7486 11.1042C26.69 10.3792 26.5145 9.65657 26.2083 8.96345L26.2015 8.94754C26.1835 8.90664 26.1655 8.86801 26.1475 8.8271C26.1385 8.80892 26.1318 8.79301 26.1227 8.77483C26.1092 8.74529 26.0957 8.71802 26.0822 8.69075C26.0665 8.65894 26.0507 8.62712 26.0327 8.59303C26.0259 8.5794 26.0192 8.56576 26.0102 8.55213C25.8301 8.20671 25.6207 7.87946 25.3821 7.5704C25.3776 7.56358 25.3731 7.55904 25.3686 7.55222C25.3393 7.51586 25.3123 7.4795 25.2831 7.44314C25.2741 7.43405 25.2673 7.42269 25.2583 7.4136C25.2335 7.38178 25.2065 7.35224 25.1818 7.32043C25.1705 7.30679 25.1592 7.29316 25.148 7.28179C25.1255 7.25452 25.1007 7.22725 25.0759 7.19998C25.0624 7.18407 25.0489 7.17044 25.0354 7.15453C25.0129 7.12953 24.9904 7.10454 24.9679 7.08181C24.9521 7.0659 24.9364 7.05 24.9206 7.03409C24.8981 7.01136 24.8778 6.98864 24.8553 6.96819C24.8373 6.95001 24.8216 6.9341 24.8036 6.91819C24.7833 6.89774 24.763 6.87729 24.7405 6.85683C24.7225 6.83865 24.7045 6.82047 24.6842 6.80457C24.664 6.78639 24.6437 6.76593 24.6235 6.74775C24.6032 6.72957 24.5852 6.71139 24.5649 6.69321C24.5447 6.67503 24.5244 6.65685 24.5041 6.63867C24.4839 6.62049 24.4614 6.60231 24.4411 6.58413C24.4209 6.56822 24.4028 6.55004 24.3826 6.53414C24.3601 6.51596 24.3376 6.49778 24.315 6.4796C24.297 6.46369 24.2768 6.44778 24.2588 6.43415C24.234 6.41597 24.2115 6.39551 24.1867 6.37733C24.1687 6.3637 24.1507 6.35006 24.1327 6.33643C24.1057 6.31597 24.0809 6.29779 24.0539 6.27734C24.0382 6.26598 24.0201 6.25234 24.0044 6.24098C23.9751 6.22053 23.9459 6.20008 23.9166 6.17962C23.9031 6.17053 23.8873 6.15917 23.8738 6.15008C23.84 6.12736 23.8085 6.1069 23.7748 6.08418C23.7635 6.07736 23.7523 6.06827 23.741 6.06145C23.7027 6.03646 23.6645 6.01373 23.6262 5.98873C23.6194 5.98419 23.6127 5.97964 23.6059 5.97737C23.275 5.77512 22.9261 5.60241 22.5659 5.46378C22.5524 5.45924 22.5366 5.45242 22.5231 5.44788C22.4893 5.43424 22.4556 5.42288 22.4218 5.40924C22.3925 5.39788 22.3633 5.38879 22.334 5.37743C22.316 5.37061 22.298 5.36379 22.28 5.35925C22.2395 5.34561 22.1967 5.33198 22.1539 5.31834L22.1382 5.3138C21.42 5.08882 20.6884 4.99565 19.9703 5.02292C19.9545 5.02292 19.941 5.02292 19.9252 5.02292C19.8915 5.02292 19.8577 5.02519 19.8217 5.02746C19.7857 5.02746 19.7474 5.03201 19.7114 5.03428C19.6979 5.03428 19.6866 5.03428 19.6731 5.03655C18.955 5.09564 18.2391 5.27289 17.5502 5.58195L17.5367 5.5865C17.4962 5.60468 17.4557 5.62286 17.4152 5.64331C17.3994 5.65013 17.3836 5.65922 17.3656 5.66604C17.3364 5.67967 17.3071 5.69331 17.2778 5.70921C17.2463 5.72512 17.2148 5.74103 17.1855 5.75694C17.1698 5.76375 17.1563 5.77284 17.1405 5.77966C15.8326 6.47505 14.7475 7.61812 14.1374 9.10662L12.7192 12.5608C12.2037 13.8153 11.2784 14.7743 10.1641 15.3424C10.1348 15.3583 10.1056 15.3719 10.0763 15.3856C10.0628 15.3924 10.0515 15.3969 10.038 15.4038C10.0178 15.4128 9.99751 15.4219 9.975 15.4333C9.4077 15.6969 8.79538 15.8605 8.16505 15.9128H8.14479C8.11327 15.9173 8.08175 15.9196 8.04799 15.9219C8.03223 15.9219 8.01647 15.9219 8.00071 15.9242C7.9782 15.9242 7.95344 15.9242 7.93092 15.9264C7.90616 15.9264 7.8814 15.9264 7.85664 15.9287C7.84313 15.9287 7.82737 15.9287 7.81386 15.9287C7.78009 15.9287 7.74633 15.9287 7.71481 15.9287H7.6968C7.06422 15.9242 6.43839 15.8083 5.84858 15.5901C5.82832 15.5833 5.81031 15.5765 5.79005 15.5674C5.77654 15.5628 5.76078 15.556 5.74728 15.5515C5.71801 15.5401 5.68874 15.5287 5.65948 15.5174C5.64822 15.5128 5.63697 15.5083 5.62796 15.5037C5.59645 15.4901 5.56493 15.4765 5.53341 15.4628C5.52216 15.4583 5.51315 15.4537 5.5019 15.4492C5.47038 15.4356 5.44111 15.4219 5.4096 15.406C5.39834 15.4015 5.38709 15.3947 5.37358 15.3901C5.34431 15.3765 5.3173 15.3628 5.28803 15.3492C5.27453 15.3424 5.26102 15.3356 5.24751 15.3288C5.22275 15.3151 5.19573 15.3015 5.17097 15.2879C5.15521 15.2788 5.13946 15.2719 5.1237 15.2629C5.10118 15.2492 5.07867 15.2379 5.05616 15.2242C5.03815 15.2151 5.02239 15.2038 5.00438 15.1947C4.98412 15.1833 4.96386 15.172 4.9436 15.1583C4.92559 15.147 4.90533 15.1356 4.88732 15.1242C4.86931 15.1129 4.8513 15.1015 4.83329 15.0901C4.81303 15.0765 4.79277 15.0651 4.77251 15.0515C4.75675 15.0401 4.741 15.0311 4.72524 15.0197C4.70272 15.0061 4.68246 14.9902 4.6622 14.9765C4.6487 14.9674 4.63294 14.9561 4.61943 14.947C4.59692 14.9311 4.57666 14.9152 4.55415 14.8993C4.54064 14.8902 4.52713 14.8788 4.51363 14.8697C4.49111 14.8538 4.47085 14.8379 4.44834 14.8197C4.43483 14.8084 4.42133 14.7993 4.40782 14.7879C4.38756 14.772 4.36505 14.7538 4.34479 14.7379C4.33128 14.7265 4.31777 14.7152 4.30427 14.7038C4.28401 14.6879 4.26374 14.6697 4.24348 14.6538C4.22998 14.6425 4.21422 14.6288 4.20071 14.6175C4.1827 14.6016 4.16244 14.5856 4.14443 14.5675C4.12867 14.5538 4.11291 14.5402 4.09941 14.5266C4.0814 14.5107 4.06564 14.4947 4.04763 14.4788C4.03187 14.4629 4.01386 14.447 3.9981 14.4311C3.98235 14.4175 3.96659 14.4016 3.95308 14.3879C3.93507 14.3698 3.91931 14.3538 3.9013 14.3357C3.8878 14.322 3.87429 14.3084 3.86078 14.2948C3.84277 14.2766 3.82476 14.2584 3.80675 14.238C3.79325 14.2243 3.78199 14.2107 3.77073 14.1993C3.75273 14.1789 3.73472 14.1607 3.71671 14.1402C3.70545 14.1266 3.69419 14.1152 3.68294 14.1016C3.66493 14.0811 3.64692 14.0607 3.63116 14.0402C3.6199 14.0266 3.60865 14.013 3.59739 14.0016C3.57938 13.9812 3.56363 13.9607 3.54562 13.9403C3.53436 13.9266 3.5231 13.913 3.51185 13.8971C3.49609 13.8766 3.48033 13.8562 3.46457 13.8357C3.45332 13.8198 3.43981 13.8039 3.42855 13.7903C3.41505 13.7721 3.39929 13.7516 3.38578 13.7335C3.37227 13.7153 3.36102 13.6994 3.34751 13.6812C3.334 13.663 3.32275 13.6448 3.30924 13.6266C3.29573 13.6062 3.28223 13.588 3.26872 13.5676C3.25746 13.5517 3.24621 13.5357 3.23495 13.5176C3.22145 13.4948 3.20569 13.4744 3.19218 13.4517C3.18318 13.438 3.17417 13.4221 3.16517 13.4085C3.14941 13.3835 3.13365 13.3585 3.11789 13.3335C3.11114 13.3199 3.10213 13.3085 3.09538 13.2949C3.07962 13.2676 3.06386 13.2403 3.04585 13.2108C3.0391 13.1994 3.03235 13.1881 3.02784 13.1767C3.01209 13.1471 2.99408 13.1176 2.97832 13.0858C2.97382 13.0767 2.96706 13.0653 2.96256 13.0562C2.9468 13.0244 2.93104 12.9949 2.91303 12.9631C2.90853 12.954 2.90178 12.9426 2.89727 12.9335C2.88377 12.904 2.86801 12.8767 2.8545 12.8472C2.84775 12.8335 2.841 12.8199 2.83649 12.8085C2.82749 12.7881 2.81848 12.7676 2.80948 12.7472C2.54834 12.1722 2.38626 11.5541 2.33448 10.9178V10.8974C2.32998 10.8655 2.32773 10.8315 2.32547 10.7996C2.32547 10.7837 2.32547 10.7678 2.32322 10.7542C2.32322 10.7292 2.32322 10.7065 2.32097 10.6815C2.32097 10.6565 2.32097 10.6337 2.31872 10.6087C2.31872 10.5928 2.31872 10.5792 2.31872 10.5633C2.31872 10.5292 2.31872 10.4974 2.31872 10.4633V10.4451C2.32322 9.80655 2.43803 9.17707 2.65415 8.58394C2.6609 8.56349 2.66991 8.54304 2.67666 8.52258C2.68116 8.50895 2.68791 8.49531 2.69242 8.48168C2.70367 8.45214 2.71493 8.42259 2.72844 8.39078C2.73294 8.37942 2.73744 8.37033 2.74194 8.35896C2.75545 8.32715 2.76896 8.29533 2.78246 8.26125C2.78697 8.24988 2.79147 8.24079 2.79597 8.22943C2.80948 8.19762 2.82524 8.1658 2.83874 8.13626C2.84325 8.1249 2.85 8.11353 2.8545 8.10217C2.86801 8.07263 2.88152 8.04308 2.89727 8.01581C2.90403 8.00218 2.91078 7.98854 2.91754 7.97491C2.93104 7.94764 2.94455 7.92264 2.95806 7.89764C2.96706 7.88174 2.97382 7.8681 2.98282 7.85219C2.99633 7.82947 3.00758 7.80447 3.02109 7.78175C3.03009 7.76357 3.04135 7.74766 3.05036 7.72948C3.06161 7.70902 3.07512 7.68857 3.08637 7.66812C3.09763 7.64994 3.10889 7.62949 3.12014 7.61131C3.1314 7.59313 3.14265 7.57495 3.15391 7.55677C3.16742 7.53631 3.17867 7.51586 3.19218 7.49541C3.20344 7.4795 3.21244 7.46359 3.2237 7.44541C3.2372 7.42496 3.25071 7.40224 3.26647 7.38178C3.27773 7.36588 3.28673 7.35224 3.29799 7.33633C3.31374 7.31361 3.32725 7.29316 3.34301 7.27043C3.35427 7.25679 3.36327 7.24089 3.37453 7.22725C3.39028 7.20453 3.40604 7.18407 3.4218 7.16135C3.43306 7.14771 3.44206 7.13408 3.45332 7.12044C3.46908 7.09999 3.48483 7.07727 3.50284 7.05681C3.5141 7.04318 3.52536 7.02954 3.53661 7.01364C3.55237 6.99318 3.56813 6.97273 3.58614 6.95455C3.59964 6.93864 3.6109 6.92501 3.62441 6.9091C3.64017 6.89092 3.65592 6.87274 3.67168 6.85456C3.68519 6.83865 3.70095 6.82275 3.71446 6.80684C3.73021 6.79093 3.74372 6.77275 3.75948 6.75684C3.77524 6.73866 3.791 6.72275 3.80675 6.70685C3.82026 6.69094 3.83377 6.6773 3.84953 6.6614C3.86754 6.64322 3.88555 6.62504 3.9013 6.60686C3.91481 6.59322 3.92832 6.57959 3.94182 6.56595C3.95983 6.54777 3.98009 6.52959 3.9981 6.51141C4.01161 6.50005 4.02287 6.48641 4.03637 6.47505C4.05664 6.45687 4.0769 6.43869 4.09716 6.42051C4.11066 6.40915 4.12192 6.39779 4.13543 6.38642C4.15569 6.36824 4.17595 6.35006 4.19621 6.33188C4.20972 6.32052 4.22097 6.30916 4.23448 6.29779C4.25474 6.27961 4.275 6.26371 4.29751 6.24553C4.31102 6.23416 4.32453 6.2228 4.33803 6.21144C4.35829 6.19553 4.37855 6.17962 4.39882 6.16372C4.41457 6.15235 4.42808 6.14099 4.44384 6.12963C4.4641 6.11372 4.48211 6.10009 4.50237 6.08645C4.51813 6.07509 4.53614 6.06145 4.5519 6.05009C4.56991 6.03646 4.58791 6.02282 4.60592 6.01146C4.62393 5.99782 4.64419 5.98419 4.6622 5.97055C4.67796 5.95919 4.69597 5.94783 4.71173 5.93647C4.73199 5.92283 4.7545 5.90692 4.77701 5.89329C4.79277 5.8842 4.80628 5.87283 4.82204 5.86374C4.8468 5.84784 4.86931 5.83193 4.89408 5.8183C4.90758 5.8092 4.92109 5.80239 4.93235 5.7933C4.95936 5.77739 4.98637 5.76148 5.01339 5.74557C5.02464 5.73876 5.0359 5.73194 5.04716 5.72512C5.07642 5.70921 5.10569 5.69103 5.13495 5.67513C5.14621 5.67058 5.15521 5.66376 5.16647 5.65922C5.19573 5.64331 5.22725 5.6274 5.25652 5.6115C5.26777 5.60695 5.27678 5.60013 5.28803 5.59559C5.31505 5.58195 5.34431 5.56832 5.37133 5.55468C5.38483 5.54787 5.39834 5.54105 5.41185 5.53423C5.42986 5.52514 5.45012 5.51605 5.46813 5.50696C6.03768 5.24335 6.65225 5.07746 7.28483 5.02519H7.30059C7.33436 5.02064 7.36813 5.01837 7.4019 5.0161C7.4154 5.0161 7.43116 5.0161 7.44467 5.01383C7.46943 5.01383 7.49419 5.01155 7.51896 5.01155C7.54147 5.01155 7.56398 5.01155 7.58874 5.01155C7.6045 5.01155 7.62026 5.01155 7.63602 5.01155C7.66754 5.01155 7.69905 5.01155 7.73057 5.01155H7.75308C8.38341 5.0161 9.00474 5.132 9.59005 5.34789C9.61256 5.35698 9.63507 5.36379 9.65758 5.37288C9.67109 5.37743 9.68235 5.38197 9.69585 5.38879C9.72737 5.40015 9.75663 5.41379 9.78815 5.42515C10.3982 5.67967 10.9655 6.04555 11.4518 6.51368C12.0416 7.07954 13.0096 6.87274 13.3203 6.11372C13.5004 5.67513 13.4058 5.16381 13.0636 4.8343C12.3658 4.15936 11.5553 3.63214 10.6796 3.26626C10.6796 3.26626 10.6639 3.25945 10.6549 3.25717C10.6346 3.24808 10.6166 3.24127 10.5963 3.23445C10.5198 3.20263 10.441 3.17309 10.3622 3.14355L10.3509 3.139C10.3037 3.12082 10.2541 3.10492 10.2069 3.08901H10.2001C9.33566 2.79131 8.45095 2.65723 7.58199 2.67314C7.56398 2.67314 7.54372 2.67314 7.52571 2.67314C7.49419 2.67314 7.46493 2.67314 7.43341 2.67541C7.39739 2.67541 7.36363 2.67768 7.32761 2.67996C7.3096 2.67996 7.29159 2.67996 7.27133 2.68223C6.42938 2.73222 5.58519 2.92084 4.77026 3.26172L4.759 3.26626C4.71173 3.28672 4.66445 3.30717 4.61718 3.32762C4.60367 3.33444 4.59242 3.33898 4.57891 3.3458C4.54064 3.36171 4.50462 3.37989 4.46635 3.39807C4.44609 3.40716 4.42583 3.41625 4.40557 3.42761C4.3763 3.44125 4.34929 3.45488 4.32002 3.46852C4.29301 3.48215 4.266 3.49579 4.23898 3.50942L4.22773 3.51624C4.21647 3.52306 4.20521 3.5276 4.19396 3.53442C4.15118 3.55715 4.10616 3.57987 4.06339 3.6026C4.04988 3.60941 4.03412 3.6185 4.02062 3.62759C3.97784 3.65032 3.93732 3.67304 3.89455 3.69804C3.87879 3.70713 3.86303 3.71622 3.84502 3.72531C3.80675 3.74804 3.76848 3.77076 3.73021 3.79349C3.7122 3.80485 3.69194 3.81621 3.67393 3.82757C3.64017 3.8503 3.60415 3.87075 3.57038 3.89348C3.55012 3.90711 3.52761 3.92075 3.50735 3.93438C3.47583 3.95483 3.44656 3.97529 3.41505 3.99574C3.39028 4.01165 3.36777 4.02756 3.34301 4.04346C3.316 4.06164 3.28898 4.0821 3.26197 4.10028C3.23495 4.11846 3.21019 4.13664 3.18318 4.15709C3.15841 4.17527 3.1359 4.19345 3.11114 4.20936C3.08412 4.22981 3.05486 4.25026 3.02784 4.27299C3.00533 4.28889 2.98507 4.30707 2.96481 4.32298C2.93555 4.34571 2.90628 4.36843 2.87701 4.39116C2.85675 4.40706 2.83874 4.42297 2.81848 4.43888C2.78922 4.46388 2.75995 4.48888 2.73069 4.51387C2.71268 4.52978 2.69467 4.54569 2.67666 4.5616C2.64739 4.58659 2.61813 4.61386 2.58886 4.63886C2.57085 4.65477 2.55284 4.67068 2.53483 4.68658C2.50557 4.71385 2.47855 4.73885 2.44929 4.76612C2.43128 4.7843 2.41327 4.80021 2.39526 4.81839C2.36825 4.84566 2.34123 4.87066 2.31422 4.89793C2.29621 4.91611 2.27595 4.93656 2.25794 4.95474C2.23318 4.97974 2.20841 5.00474 2.18365 5.03201C2.16339 5.05246 2.14313 5.07518 2.12287 5.09564C2.10036 5.12063 2.07784 5.14336 2.05533 5.16836C2.03282 5.19108 2.01256 5.21608 1.99005 5.24108C1.96979 5.2638 1.94953 5.28653 1.92927 5.30925C1.90675 5.33425 1.88424 5.36152 1.86173 5.38879C1.84372 5.40924 1.82571 5.43197 1.8077 5.45242C1.78519 5.47969 1.76043 5.50923 1.73791 5.53878C1.72216 5.55923 1.70415 5.57968 1.68839 5.60013C1.66588 5.62968 1.64111 5.65922 1.6186 5.69103C1.60284 5.71149 1.58709 5.72967 1.57358 5.75012C1.55107 5.77966 1.52855 5.81148 1.50604 5.84329C1.49028 5.86374 1.47678 5.8842 1.46102 5.90465C1.43851 5.93647 1.41825 5.96601 1.39573 5.99782C1.37998 6.01828 1.36647 6.041 1.35071 6.06145C1.33045 6.091 1.31019 6.12281 1.28993 6.15235C1.27417 6.17508 1.25841 6.20008 1.24491 6.2228C1.2269 6.25234 1.20889 6.27962 1.19088 6.30916C1.17512 6.33416 1.15936 6.36143 1.1436 6.38642C1.12784 6.41369 1.11209 6.44096 1.09408 6.46823C1.07607 6.49778 1.06031 6.52732 1.0423 6.55686C1.02879 6.58186 1.01528 6.60686 0.999526 6.62958C0.981517 6.66367 0.963507 6.69548 0.945498 6.72957C0.934242 6.7523 0.922986 6.77275 0.909479 6.79548C0.889218 6.83184 0.871209 6.87047 0.850948 6.90683C0.841943 6.92501 0.830687 6.94546 0.821683 6.96364C0.801422 7.00455 0.781161 7.04545 0.7609 7.08636C0.754147 7.10226 0.745142 7.11817 0.738389 7.13635C0.718128 7.17953 0.697867 7.22498 0.677607 7.27043C0.670853 7.28407 0.6641 7.29997 0.657346 7.31361C0.637085 7.35906 0.616825 7.40451 0.598815 7.45223C0.594313 7.46359 0.58981 7.47496 0.585308 7.48632L0.580806 7.49768C0.562796 7.54086 0.547038 7.58176 0.53128 7.62494C0.524526 7.64539 0.515521 7.66357 0.508768 7.68403C0.497512 7.71357 0.486256 7.74311 0.477251 7.77266C0.159834 8.64303 0.00450237 9.54294 0 10.4292V10.4542C0 10.5019 0 10.5497 0 10.5974C0 10.6178 0 10.6406 0 10.661C0 10.6974 0 10.7315 0.00450237 10.7656C0.00450237 10.7996 0.00675355 10.8337 0.00900474 10.8678C0.00900474 10.8905 0.0112559 10.9133 0.0135071 10.936C0.0157583 10.9814 0.0202607 11.0292 0.0225118 11.0746C0.0225118 11.0837 0.0225118 11.0951 0.024763 11.1042C0.0968009 11.9859 0.317417 12.8676 0.70237 13.713C0.715877 13.7425 0.729384 13.7744 0.742891 13.8039C0.751896 13.8221 0.7609 13.838 0.767654 13.8562C0.787915 13.8993 0.808175 13.9425 0.830687 13.9834L0.83519 13.9925C0.83519 13.9925 0.846446 14.013 0.850948 14.0221C0.87346 14.0675 0.898223 14.113 0.920735 14.1584C0.927488 14.172 0.934242 14.1857 0.943246 14.1993C0.965758 14.2425 0.990521 14.2857 1.01528 14.3311C1.02429 14.347 1.03329 14.3607 1.0423 14.3766C1.06481 14.4175 1.08957 14.4561 1.11209 14.497C1.12334 14.5152 1.13235 14.5334 1.1436 14.5493C1.16611 14.5856 1.18863 14.622 1.21114 14.6584C1.22464 14.6788 1.23815 14.6993 1.24941 14.7197C1.26967 14.7515 1.28993 14.7834 1.31244 14.8152C1.3282 14.8379 1.34396 14.8606 1.35972 14.8856C1.37998 14.9129 1.39799 14.9424 1.41825 14.9697C1.43626 14.9947 1.45427 15.0197 1.47227 15.047C1.49028 15.072 1.50829 15.097 1.5263 15.122C1.54656 15.1492 1.56682 15.1765 1.58709 15.2038C1.60509 15.2265 1.62085 15.2492 1.63886 15.2697C1.66137 15.2992 1.68389 15.3265 1.7064 15.356C1.72216 15.3765 1.74017 15.3969 1.75592 15.4174C1.78069 15.4469 1.8032 15.4765 1.82796 15.506C1.84372 15.5242 1.85948 15.5446 1.87524 15.5628C1.9 15.5924 1.92476 15.6219 1.94953 15.6492C1.96528 15.6674 1.98329 15.6855 1.99905 15.7037C2.02382 15.731 2.05083 15.7605 2.07559 15.7878C2.0936 15.806 2.11161 15.8264 2.12962 15.8446C2.15438 15.8719 2.17915 15.8992 2.20616 15.9242C2.22642 15.9446 2.24443 15.9628 2.26469 15.9832C2.28946 16.0082 2.31422 16.0332 2.33898 16.0582C2.36149 16.0787 2.38175 16.0991 2.40427 16.1196C2.42678 16.1423 2.45154 16.165 2.47405 16.1878C2.49882 16.2105 2.52133 16.2309 2.54609 16.2537C2.5686 16.2741 2.59111 16.2946 2.61363 16.315C2.64064 16.3378 2.6654 16.3605 2.69242 16.3832C2.71268 16.4014 2.73294 16.4196 2.75545 16.4377C2.78472 16.4627 2.81173 16.4855 2.841 16.5082C2.86126 16.5241 2.88152 16.54 2.89953 16.5559C2.92879 16.5809 2.96031 16.6036 2.98957 16.6264C3.00983 16.6423 3.02784 16.6559 3.0481 16.6718C3.07962 16.6945 3.10889 16.7173 3.1404 16.7423C3.16066 16.7559 3.18092 16.7718 3.20118 16.7854C3.2327 16.8082 3.26197 16.8286 3.29348 16.8513C3.31374 16.8672 3.33626 16.8809 3.35652 16.8968C3.38578 16.9172 3.4173 16.9377 3.44656 16.9581C3.46908 16.9741 3.49384 16.99 3.51635 17.0036C3.54562 17.0218 3.57263 17.04 3.6019 17.0581C3.62666 17.074 3.65367 17.09 3.68069 17.1059C3.7077 17.1218 3.73472 17.1377 3.75948 17.1536C3.78874 17.1718 3.81801 17.1877 3.84728 17.2059C3.87204 17.2195 3.89455 17.2331 3.91931 17.2468C3.95308 17.2649 3.9846 17.2831 4.01836 17.3013C4.03863 17.3127 4.06114 17.324 4.08365 17.3354C4.11967 17.3558 4.15794 17.374 4.19621 17.3945C4.21422 17.4036 4.23223 17.4127 4.25249 17.424C4.29301 17.4445 4.33578 17.4649 4.3763 17.4854C4.39206 17.4922 4.40782 17.5013 4.42358 17.5081C4.4686 17.5286 4.51363 17.549 4.5564 17.5695C4.56991 17.5763 4.58341 17.5831 4.59917 17.5876C4.64419 17.6081 4.69147 17.6285 4.73874 17.6467C4.75 17.6513 4.75901 17.6558 4.77026 17.6604L4.77927 17.6649C4.82204 17.6831 4.86481 17.699 4.90758 17.7172C4.92559 17.724 4.94585 17.7331 4.96386 17.7399C4.99313 17.7513 5.02464 17.7626 5.05391 17.774C5.91837 18.0967 6.80758 18.2512 7.68329 18.2558H7.71256C7.75983 18.2558 7.80486 18.2558 7.85213 18.2558C7.87464 18.2558 7.89716 18.2558 7.91742 18.2558C7.95118 18.2558 7.98495 18.2558 8.01872 18.2535C8.05249 18.2535 8.08851 18.2512 8.12228 18.2489C8.14254 18.2489 8.16505 18.2467 8.18531 18.2444C8.23258 18.2421 8.27986 18.2376 8.32713 18.2353H8.3519C9.22761 18.1603 10.1033 17.9376 10.943 17.5467C10.9723 17.5331 10.9993 17.5217 11.0286 17.5081C11.0466 17.499 11.0646 17.4899 11.0848 17.4808C11.1254 17.4604 11.1681 17.4399 11.2086 17.4195L11.2177 17.4149C12.8047 16.6036 14.1239 15.2356 14.8578 13.4471L15.8348 11.0655L16.2761 9.99063C16.6565 9.06344 17.3229 8.34306 18.1288 7.88855C18.1896 7.85447 18.2526 7.82038 18.3134 7.79084C18.3201 7.78629 18.3269 7.78402 18.3359 7.77947C18.3899 7.7522 18.444 7.72721 18.5002 7.70221C18.516 7.69539 18.5295 7.68857 18.5453 7.68176C18.5925 7.6613 18.6398 7.64312 18.6871 7.62494C18.7096 7.61585 18.7299 7.60903 18.7524 7.59994C18.7929 7.58404 18.8357 7.5704 18.8784 7.55677C18.9055 7.54768 18.9302 7.53859 18.9572 7.53177C18.9955 7.52041 19.036 7.50904 19.0743 7.49768C19.1058 7.48859 19.1373 7.4795 19.1688 7.47268C19.2049 7.46359 19.2409 7.4545 19.2769 7.44769C19.3062 7.44087 19.3377 7.43405 19.3669 7.42723C19.4075 7.41814 19.448 7.41133 19.4863 7.40451C19.5088 7.39996 19.5313 7.39542 19.556 7.39315C19.6056 7.38633 19.6551 7.37951 19.7046 7.37269C19.7204 7.37269 19.7361 7.36815 19.7519 7.36815C19.8104 7.36133 19.869 7.35679 19.9275 7.35224C19.9342 7.35224 19.941 7.35224 19.95 7.35224C20.4948 7.32043 21.0373 7.39542 21.5483 7.56586L21.5618 7.5704C21.6204 7.59085 21.6789 7.61131 21.7374 7.63403C21.7464 7.63858 21.7555 7.64085 21.7645 7.64539C21.8162 7.66585 21.8703 7.68857 21.922 7.7113C21.9333 7.71584 21.9445 7.72266 21.9558 7.7272C22.0031 7.74993 22.0504 7.77038 22.0976 7.79538C22.1089 7.79993 22.1201 7.80674 22.1314 7.81129C22.1809 7.83629 22.2305 7.86356 22.28 7.89083C22.289 7.89537 22.3002 7.90219 22.3092 7.90673C22.3588 7.93628 22.4083 7.96582 22.4578 7.99763C22.4668 8.00445 22.4758 8.009 22.4848 8.01581C22.5344 8.04763 22.5839 8.08172 22.6312 8.11581C22.6402 8.12035 22.6469 8.12717 22.6559 8.13171C22.7055 8.1658 22.7527 8.20216 22.8 8.23852C22.8068 8.24306 22.8135 8.24988 22.8203 8.25443C22.8675 8.29306 22.9148 8.33169 22.9621 8.37033C22.9688 8.37487 22.9756 8.38169 22.9801 8.38623C23.0274 8.42714 23.0724 8.46804 23.1174 8.51122C23.1219 8.51577 23.1287 8.52258 23.1332 8.52713C23.1782 8.57031 23.2232 8.61576 23.266 8.66121L23.2795 8.67484C23.3245 8.72257 23.3673 8.77029 23.4101 8.82028L23.4191 8.83165C23.4641 8.88391 23.5069 8.93618 23.5474 8.99072L23.5519 8.99527C23.6825 9.16571 23.8018 9.34751 23.9098 9.54067C23.9436 9.60203 23.9774 9.66566 24.0066 9.72702C24.0111 9.73383 24.0134 9.74292 24.0179 9.74974C24.0449 9.80428 24.0697 9.85882 24.0922 9.91336C24.0989 9.92927 24.1057 9.94518 24.1124 9.96108C24.1327 10.0088 24.1507 10.0565 24.1687 10.102C24.1777 10.1247 24.1845 10.1474 24.1935 10.1679C24.2092 10.2088 24.2227 10.252 24.2363 10.2929C24.2453 10.3201 24.2543 10.3474 24.261 10.3724C24.2723 10.411 24.2835 10.4497 24.2948 10.4906C24.3038 10.5224 24.3128 10.5565 24.3195 10.5883C24.3286 10.6247 24.3376 10.6587 24.3443 10.6951C24.3511 10.7269 24.3578 10.7565 24.3646 10.7883C24.3736 10.8269 24.3803 10.8678 24.3871 10.9087C24.3916 10.9314 24.3961 10.9564 24.3983 10.9792C24.4051 11.0292 24.4118 11.0792 24.4186 11.1292C24.4186 11.1451 24.4231 11.161 24.4254 11.1769C24.4321 11.236 24.4366 11.295 24.4411 11.3519C24.4411 11.3587 24.4411 11.3678 24.4411 11.3746C24.4726 11.9245 24.3983 12.4722 24.2295 12.9881L24.225 13.0017C24.2047 13.0608 24.1845 13.1199 24.162 13.1767C24.1575 13.1858 24.1552 13.1971 24.1507 13.2062C24.1305 13.2585 24.1079 13.3108 24.0854 13.363C24.0809 13.3744 24.0742 13.388 24.0697 13.3994C24.0494 13.4471 24.0269 13.4926 24.0044 13.5403C23.9976 13.5517 23.9931 13.5653 23.9864 13.5767C23.9616 13.6266 23.9346 13.6744 23.9076 13.7244C23.9008 13.7357 23.8963 13.7448 23.8896 13.7562C23.8603 13.8062 23.831 13.8562 23.8018 13.9062C23.795 13.9153 23.7905 13.9243 23.7838 13.9357C23.7523 13.9857 23.7207 14.0334 23.687 14.0834C23.6802 14.0925 23.6757 14.0993 23.669 14.1084C23.6352 14.1584 23.5992 14.2061 23.5632 14.2539C23.5564 14.2607 23.5519 14.2698 23.5451 14.2766C23.5091 14.3243 23.4709 14.372 23.4303 14.4175C23.4258 14.4243 23.4191 14.4311 23.4146 14.4379C23.3741 14.4857 23.3335 14.5311 23.2908 14.5743C23.2863 14.5811 23.2795 14.5856 23.275 14.5925C23.2322 14.6379 23.1872 14.6834 23.1422 14.7265C23.1377 14.7311 23.1332 14.7356 23.1264 14.7402C23.0791 14.7856 23.0319 14.8288 22.9823 14.872L22.9711 14.8811C22.9193 14.9242 22.8675 14.9674 22.8135 15.0106L22.809 15.0152C22.6402 15.147 22.4623 15.2674 22.271 15.3765C22.2102 15.4106 22.1472 15.4447 22.0864 15.4742C22.0796 15.4787 22.0706 15.481 22.0639 15.4856C22.0098 15.5128 21.9558 15.5378 21.9018 15.5628C21.886 15.5696 21.8703 15.5765 21.8568 15.5833C21.8095 15.6037 21.7622 15.6219 21.7149 15.6401C21.6924 15.6492 21.6722 15.656 21.6496 15.6651C21.6091 15.681 21.5664 15.6946 21.5258 15.7083C21.4988 15.7174 21.4741 15.7264 21.447 15.7333C21.4088 15.7446 21.3682 15.756 21.33 15.7674C21.2985 15.7764 21.2669 15.7855 21.2354 15.7923C21.1994 15.8014 21.1634 15.8105 21.1274 15.8173C21.0981 15.8242 21.0688 15.831 21.0373 15.8355C20.9968 15.8446 20.9563 15.8514 20.9158 15.8583C20.8932 15.8628 20.8707 15.8651 20.8482 15.8696C20.7987 15.8764 20.7492 15.8833 20.6974 15.8901C20.6816 15.8901 20.6659 15.8946 20.6501 15.8946C20.5916 15.9014 20.5331 15.906 20.4745 15.9105C20.4678 15.9105 20.461 15.9105 20.4543 15.9105C19.9095 15.9423 19.3669 15.8673 18.8537 15.6969L18.8402 15.6924C18.7816 15.6719 18.7231 15.6515 18.6646 15.6287C18.6556 15.6242 18.6466 15.6219 18.6376 15.6174C18.3201 15.4901 18.0185 15.3265 17.7371 15.1242C17.1338 14.6902 16.2873 14.9447 16.0037 15.6355C15.7966 16.1423 15.9654 16.7264 16.4089 17.0422C16.8546 17.3604 17.3341 17.6194 17.8384 17.8149C17.8541 17.8217 17.8677 17.8262 17.8834 17.8331C17.9172 17.8467 17.9487 17.8581 17.9825 17.8694C18.0117 17.8808 18.0432 17.8899 18.0725 17.9012C18.0905 17.9081 18.1085 17.9126 18.1243 17.9194C18.1671 17.9331 18.2076 17.9467 18.2504 17.9603L18.2639 17.9649C18.982 18.1898 19.7136 18.283 20.434 18.2558C20.4475 18.2558 20.461 18.2558 20.4768 18.2558C20.5128 18.2558 20.5466 18.2535 20.5826 18.2512C20.6186 18.2512 20.6546 18.2467 20.6906 18.2444C20.7041 18.2444 20.7177 18.2444 20.7312 18.2421C21.4493 18.183 22.1652 18.0058 22.854 17.6967L22.8653 17.6922C22.9058 17.674 22.9463 17.6558 22.9868 17.6354C23.0026 17.6285 23.0184 17.6194 23.0341 17.6126C23.0634 17.599 23.0927 17.5831 23.1219 17.5695C23.1534 17.5535 23.1827 17.5376 23.2142 17.5217C23.23 17.5126 23.2457 17.5058 23.2592 17.4967C23.5519 17.3399 23.8355 17.1627 24.1034 16.9627C24.1462 16.9309 24.1867 16.8968 24.2295 16.865C24.2363 16.8604 24.243 16.8536 24.2498 16.8491C24.2835 16.8218 24.3195 16.7945 24.3533 16.765C24.3646 16.7559 24.3758 16.7468 24.3871 16.7377C24.4164 16.7127 24.4456 16.6877 24.4749 16.6627C24.4884 16.6514 24.5019 16.6377 24.5177 16.6264C24.5447 16.6036 24.5694 16.5809 24.5942 16.5582C24.61 16.5446 24.6257 16.5286 24.6415 16.515C24.664 16.4923 24.6887 16.4718 24.7113 16.4491C24.7293 16.4332 24.745 16.4173 24.763 16.3991C24.7833 16.3787 24.8058 16.3582 24.8261 16.3355C24.8441 16.3173 24.8621 16.2991 24.8778 16.2809C24.8981 16.2605 24.9184 16.24 24.9364 16.2196C24.9544 16.2014 24.9724 16.1809 24.9904 16.1628C25.0084 16.1423 25.0264 16.1219 25.0467 16.1037C25.0647 16.0832 25.0827 16.0628 25.1007 16.0423C25.1187 16.0219 25.1345 16.0037 25.1525 15.9832C25.1705 15.9628 25.1885 15.9401 25.2065 15.9173C25.2223 15.8992 25.238 15.8787 25.2538 15.8583C25.2718 15.8355 25.2921 15.8128 25.3101 15.7901C25.3258 15.7719 25.3393 15.7537 25.3551 15.7333C25.3731 15.7083 25.3934 15.6833 25.4114 15.6583C25.4249 15.6401 25.4384 15.6219 25.4519 15.6037C25.4722 15.5765 25.4902 15.5492 25.5104 15.5219C25.5217 15.506 25.5329 15.4901 25.5464 15.4719C25.5667 15.4424 25.587 15.4128 25.6072 15.3833C25.6162 15.3697 25.6275 15.3538 25.6365 15.3401C25.659 15.306 25.6815 15.2719 25.7018 15.2401C25.7085 15.2288 25.7153 15.2174 25.7243 15.206C25.7491 15.1674 25.7738 15.1288 25.7963 15.0879C25.8008 15.0811 25.8053 15.0742 25.8076 15.0674C26.0079 14.7334 26.179 14.3811 26.3164 14.0175L26.3254 14.0221Z" fill="url(#paint0_linear_1145_855)"/>
<path d="M19.7579 20.8578C19.7579 20.2115 19.2393 19.6875 18.5996 19.6875C17.96 19.6875 17.4414 20.2115 17.4414 20.8578V22.8281C17.4414 23.4745 17.96 23.9985 18.5996 23.9985C19.2393 23.9985 19.7579 23.4745 19.7579 22.8281V20.8578Z" fill="#12CCE4"/>
<path d="M11.4512 20.8578C11.4512 20.2115 10.9327 19.6875 10.293 19.6875C9.65332 19.6875 9.13477 20.2115 9.13477 20.8578V22.8281C9.13477 23.4745 9.65332 23.9985 10.293 23.9985C10.9327 23.9985 11.4512 23.4745 11.4512 22.8281V20.8578Z" fill="#12CCE4"/>
<path d="M15.6055 19.5024C15.6055 18.856 15.087 18.332 14.4473 18.332C13.8076 18.332 13.2891 18.856 13.2891 19.5024V21.4726C13.2891 22.119 13.8076 22.643 14.4473 22.643C15.087 22.643 15.6055 22.119 15.6055 21.4726V19.5024Z" fill="#12CCE4"/>
<path d="M34.7861 8.15625C34.1829 8.34392 33.6589 8.63276 33.2284 9.0281V8.11527C33.6485 7.52212 34.156 7.07575 34.7512 6.76608C35.3302 6.46481 35.9268 6.2839 36.5417 6.22076V7.84161C35.9304 7.87808 35.3448 7.9824 34.7861 8.15625ZM32.2284 6.24531V7.81236C32.1948 7.86565 32.1617 7.91971 32.1293 7.97454L32.129 7.97504C31.6319 8.81732 31.3685 9.83962 31.3139 11.025L31.3032 11.0256V11.4993C31.3032 11.5001 31.3032 11.5008 31.3032 11.5016H31.8032H31.8033L31.8302 11.9986L32.2284 11.9771V17.5464H30.5V6.24531H32.2284Z" fill="white" stroke="white"/>
<path d="M46.8289 16.8498L46.8423 17.5435H48.4834V11.3032C48.4834 10.0722 48.2946 9.07391 47.9419 8.28545L46.8289 16.8498ZM46.8289 16.8498C47.4599 15.8212 47.7545 14.5082 47.7545 12.9508V12.4508H47.5078L47.4866 10.6338L47.4808 10.1396H46.9866H46.6018C46.5587 9.90523 46.5045 9.68466 46.4386 9.4785C46.2374 8.84842 45.9117 8.32875 45.444 7.95898C44.9567 7.57375 44.3313 7.40808 43.6233 7.40808C42.9795 7.40808 42.3915 7.54757 41.8688 7.8398C41.4527 8.07243 41.1014 8.39839 40.8102 8.80478L39.31 8.27482C39.5121 7.95796 39.7473 7.65323 40.0172 7.36117C40.4037 6.94303 40.8952 6.59981 41.5043 6.33811C42.0936 6.08489 42.8199 5.94922 43.6954 5.94922C44.8051 5.94922 45.6918 6.15827 46.3858 6.54859C47.0753 6.93634 47.5936 7.50934 47.9417 8.28501L46.8289 16.8498ZM42.6907 17.8366C41.4187 17.8075 40.4845 17.4996 39.8336 16.9677C39.1643 16.4208 38.8105 15.6483 38.8105 14.5756C38.8105 13.4186 39.188 12.6016 39.8988 12.0413C40.6342 11.4615 41.6988 11.1396 43.1596 11.1396H45.7136C45.7246 11.3232 45.7302 11.5171 45.7302 11.7214H45.7301L45.7303 11.731L45.7404 12.2553H44.0151C42.9119 12.2553 42.015 12.4031 41.4493 12.8008L41.4479 12.8018C40.8779 13.2055 40.5908 13.7913 40.5908 14.5006C40.5908 15.135 40.8585 15.6606 41.3729 16.0262C41.8686 16.3786 42.518 16.5255 43.2587 16.5255C43.9421 16.5255 44.5632 16.3616 45.1002 16.0167C45.363 15.8479 45.5972 15.6508 45.8014 15.4262L45.8231 16.5582C45.8127 16.5727 45.8023 16.5872 45.7917 16.6015C45.2029 17.4003 44.2726 17.8366 42.8917 17.8366H42.6907Z" fill="white" stroke="white"/>
<path d="M55.0351 17.3597H53.3291L53.3519 6.05859H55.0578L55.0351 17.3597Z" fill="white" stroke="white"/>
<path d="M59.9514 6.24301L60.0331 7.32388C59.8941 7.56593 59.7693 7.82451 59.6587 8.09904C59.2551 9.10035 59.0619 10.2784 59.0619 11.6197V12.1197H59.5619H60.0862V17.5441H58.3555V6.24301H59.9514ZM60.0862 10.8508V11.1197H60.0719C60.0756 11.0289 60.0804 10.9393 60.0862 10.8508ZM63.4675 7.52916C62.5026 7.51324 61.6896 7.81729 61.0862 8.47063V8.00643V7.98756L61.0847 7.96875L61.0548 7.57222C61.3272 7.16331 61.6481 6.83536 62.0147 6.58109C62.618 6.16266 63.3438 5.94531 64.2151 5.94531C65.5848 5.94531 66.5759 6.36143 67.2641 7.14181L67.2645 7.14228C67.9041 7.86563 68.2885 9.0013 68.3398 10.6251L66.6003 11.096C66.5605 10.3733 66.449 9.76181 66.2512 9.28C66.0009 8.67063 65.6234 8.19131 65.1007 7.90947L65.0997 7.90891C64.6175 7.65044 64.069 7.52974 63.4675 7.52916ZM66.6173 12.1274L68.3458 11.6595V17.5418H66.6173V12.1274Z" fill="white" stroke="white"/>
<path d="M54.1933 3.22242C53.7543 3.22242 53.3761 3.06335 53.0609 2.74292C52.7435 2.4225 52.5859 2.04299 52.5859 1.59985C52.5859 1.15671 52.7435 0.779472 53.0609 0.468138C53.3784 0.156803 53.7543 0 54.1933 0C54.6323 0 55.0105 0.156803 55.3256 0.468138C55.643 0.779472 55.8006 1.15671 55.8006 1.59985C55.8006 2.04299 55.643 2.42477 55.3256 2.74292C55.0082 3.06107 54.63 3.22242 54.1933 3.22242Z" fill="#12CCE4"/>
<path d="M73.149 6.41815L73.2141 7.63012C73.0952 7.84722 72.9875 8.07683 72.8908 8.31854C72.4993 9.29697 72.3057 10.4401 72.2949 11.734V6.41815H73.149ZM72.2949 17.7193V12.3494H72.7944H73.2444V17.7193H72.2949ZM77.1325 6.97028C75.9286 6.97028 74.9442 7.40685 74.2444 8.29941V8.18158V8.16816L74.2437 8.15476L74.2287 7.87568C74.5159 7.41766 74.8614 7.05304 75.2619 6.77364C75.8711 6.34867 76.6245 6.125 77.5467 6.125C78.9142 6.125 79.937 6.54467 80.6761 7.34203L80.6765 7.34251C80.9639 7.65176 81.201 8.03196 81.382 8.48883C81.0869 9.28679 80.918 10.1897 80.8675 11.1903L80.8323 11.2036C80.7866 10.2899 80.6475 9.52875 80.3939 8.94394C80.0837 8.2285 79.6323 7.68236 79.0088 7.37779C78.4428 7.10135 77.8145 6.97028 77.1325 6.97028ZM82.7953 8.30697C82.6929 8.43897 82.599 8.57811 82.5131 8.72417C82.4934 8.65259 82.4725 8.58196 82.4506 8.51229C82.7884 7.7451 83.2511 7.17365 83.8281 6.77491C84.4449 6.34869 85.2038 6.125 86.126 6.125C87.4756 6.125 88.4906 6.54337 89.2333 7.34251C89.9189 8.08028 90.3235 9.22077 90.3731 10.8403L89.4111 11.2047C89.3641 10.289 89.2206 9.52609 88.9602 8.93988C88.6425 8.22472 88.1845 7.68153 87.5664 7.3782L87.5656 7.37779C86.9996 7.10135 86.3713 6.97028 85.6892 6.97028C84.4825 6.97028 83.4964 7.4089 82.7963 8.30567L82.7953 8.30697ZM80.8494 12.2674L80.8512 12.2667V12.3494H81.3512H81.7989V17.7193H80.8494V12.4221V12.2674ZM89.4287 12.2674L90.3782 11.9077V17.7193H89.4287V12.2674Z" fill="white" stroke="white"/>
<path d="M94.8346 12.277L94.8351 12.2766C95.5356 11.7093 96.5593 11.3927 97.9693 11.3927H100.861C100.868 11.5063 100.874 11.6231 100.878 11.7429C100.878 11.7433 100.878 11.7437 100.878 11.7441L100.887 12.0403H98.4083C97.2435 12.0403 96.2911 12.2281 95.6746 12.7131C95.0545 13.2009 94.7656 13.8983 94.7656 14.7287C94.7656 15.5083 95.0608 16.163 95.6641 16.6358L95.6644 16.636C96.2522 17.0959 97.035 17.2967 97.9468 17.2967C98.7385 17.2967 99.4537 17.1144 100.066 16.7263C100.43 16.4972 100.743 16.2163 101.003 15.8864L101.027 16.673C101.016 16.686 101.006 16.6989 100.995 16.7118C100.296 17.5662 99.2808 18.017 97.8725 18.017H97.8702C96.4965 18.017 95.4989 17.7015 94.814 17.136C94.1414 16.5807 93.7891 15.8083 93.7891 14.7537C93.7891 13.6285 94.1526 12.8278 94.8346 12.277ZM101.963 14.5525L101.932 13.5311H102.087C102.067 13.893 102.026 14.2332 101.963 14.5525ZM102.258 10.3927H101.765C101.7 9.94262 101.608 9.53473 101.487 9.1714L101.487 9.17039C101.25 8.46305 100.873 7.8925 100.333 7.4982C99.7828 7.09666 99.0831 6.92256 98.2844 6.92256C97.4864 6.92256 96.8269 7.07555 96.23 7.40203C95.7463 7.66665 95.3415 8.04391 95.0122 8.52119L94.2115 8.19117C94.4335 7.86318 94.6857 7.56976 94.967 7.31111C95.3704 6.94012 95.8495 6.64984 96.411 6.43875C96.9641 6.23305 97.5948 6.125 98.307 6.125C99.3643 6.125 100.204 6.33293 100.855 6.71866C101.501 7.10161 101.989 7.67254 102.318 8.46009C102.65 9.25849 102.829 10.2838 102.829 11.5517V12.5311H102.758V10.8927V10.3927H102.258ZM102.829 15.2383V17.7193H102.059L102.036 16.988C102.391 16.4697 102.654 15.885 102.829 15.2383Z" fill="white" stroke="white"/>
<path d="M107.875 1.5V11.3194L106.926 12.3425V1.5H107.875ZM106.926 17.7211V13.4757L107.826 14.455V15.5409L107.875 15.4872V17.7211H106.926ZM113.785 6.42226H114.885L111.531 10.0546L111.152 9.50081L111.056 9.3618L113.785 6.42226ZM108.875 11.7119L109.086 11.4846L109.553 12.1963L108.875 12.9303V11.7119ZM107.764 12.9096L107.875 12.7894V13.031L107.764 12.9096ZM114.372 17.7211L110.818 12.3009L111.414 11.6547L115.567 17.7211H114.372ZM110.681 10.5842L110.835 10.8082L110.252 11.439L110.104 11.2122L110.681 10.5842Z" fill="white" stroke="white"/>
<path d="M119.694 6.41882V7.98003C119.677 8.00595 119.661 8.03205 119.645 8.05833C119.079 8.9879 118.816 10.1663 118.816 11.5524V12.0524H119.316H119.318H119.346L119.373 12.0493L119.694 12.0136V17.7199H118.744V6.41882H119.694ZM122.279 7.60316C121.662 7.8269 121.132 8.1702 120.694 8.63244V8.28176C121.12 7.6768 121.633 7.22633 122.237 6.9189L122.238 6.91864C122.804 6.62959 123.393 6.45582 124.009 6.39535V7.23456C123.415 7.27819 122.839 7.40047 122.279 7.60298L122.279 7.60316Z" fill="white" stroke="white"/>
</g>
<defs>
<linearGradient id="paint0_linear_1145_855" x1="0" y1="10.4656" x2="26.7666" y2="10.4656" gradientUnits="userSpaceOnUse">
<stop stop-color="#FF6B00"/>
<stop offset="1" stop-color="#ED1E79"/>
</linearGradient>
<clipPath id="clip0_1145_855">
<rect width="125.4" height="24" fill="white"/>
</clipPath>
</defs>
</svg>
