<svg width="130" height="156" viewBox="0 0 130 156" fill="none" xmlns="http://www.w3.org/2000/svg">
<path d="M88.8648 60.93C88.8773 60.9006 88.8856 60.8713 88.898 60.8462C88.9229 60.7833 88.9437 60.7246 88.9644 60.6618C88.9852 60.6073 89.0018 60.5486 89.0226 60.4942C89.035 60.4606 89.0433 60.4313 89.0558 60.3978C89.0807 60.3182 89.1056 60.2385 89.1305 60.1631L89.1388 60.138C89.5498 58.8012 89.72 57.4351 89.6701 56.0983C89.6701 56.0731 89.6701 56.0522 89.6701 56.027C89.6701 55.96 89.666 55.8929 89.6618 55.8217C89.6618 55.7588 89.6535 55.6918 89.6494 55.6289C89.6494 55.6038 89.6494 55.5744 89.6452 55.5493C89.5373 54.2125 89.2135 52.8799 88.6489 51.6018L88.6365 51.5725C88.6033 51.497 88.5701 51.4258 88.5369 51.3504C88.5203 51.3168 88.5078 51.2875 88.4912 51.254C88.4663 51.1995 88.4414 51.1492 88.4165 51.0989C88.3874 51.0403 88.3584 50.9816 88.3251 50.9187C88.3127 50.8936 88.3002 50.8684 88.2836 50.8433C87.9515 50.2063 87.5655 49.6029 87.1254 49.033C87.1171 49.0204 87.1088 49.012 87.1005 48.9995C87.0466 48.9324 86.9968 48.8654 86.9428 48.7983C86.9262 48.7815 86.9137 48.7606 86.8971 48.7438C86.8515 48.6852 86.8016 48.6307 86.756 48.572C86.7352 48.5469 86.7145 48.5217 86.6937 48.5008C86.6522 48.4505 86.6065 48.4002 86.5609 48.3499C86.536 48.3206 86.5111 48.2954 86.4862 48.2661C86.4446 48.22 86.4031 48.1739 86.3616 48.132C86.3326 48.1027 86.3035 48.0733 86.2744 48.044C86.2329 48.0021 86.1956 47.9602 86.1541 47.9225C86.1208 47.889 86.0918 47.8596 86.0586 47.8303C86.0212 47.7926 85.9839 47.7549 85.9423 47.7171C85.9091 47.6836 85.8759 47.6501 85.8386 47.6208C85.8012 47.5872 85.7638 47.5495 85.7265 47.516C85.6891 47.4825 85.6559 47.449 85.6185 47.4154C85.5812 47.3819 85.5438 47.3484 85.5065 47.3149C85.4691 47.2813 85.4276 47.2478 85.3902 47.2143C85.3529 47.1849 85.3197 47.1514 85.2823 47.1221C85.2408 47.0886 85.1993 47.055 85.1578 47.0215C85.1246 46.9922 85.0872 46.9628 85.054 46.9377C85.0083 46.9042 84.9668 46.8665 84.9211 46.8329C84.8879 46.8078 84.8547 46.7827 84.8215 46.7575C84.7717 46.7198 84.726 46.6863 84.6762 46.6486C84.6472 46.6276 84.6139 46.6025 84.5849 46.5815C84.5309 46.5438 84.477 46.5061 84.423 46.4684C84.3981 46.4516 84.369 46.4306 84.3441 46.4139C84.2819 46.372 84.2237 46.3343 84.1615 46.2924C84.1407 46.2798 84.12 46.263 84.0992 46.2505C84.0286 46.2044 83.9581 46.1625 83.8875 46.1164C83.875 46.108 83.8626 46.0996 83.8501 46.0954C83.2399 45.7224 82.5964 45.404 81.9323 45.1483C81.9073 45.14 81.8783 45.1274 81.8534 45.119C81.7911 45.0939 81.7288 45.0729 81.6666 45.0478C81.6126 45.0268 81.5586 45.01 81.5047 44.9891C81.4715 44.9765 81.4383 44.964 81.405 44.9556C81.3303 44.9304 81.2515 44.9053 81.1726 44.8801L81.1435 44.8718C79.8193 44.4569 78.4701 44.2851 77.1459 44.3354C77.1168 44.3354 77.0919 44.3354 77.0629 44.3354C77.0006 44.3354 76.9383 44.3396 76.8719 44.3437C76.8055 44.3437 76.7349 44.3521 76.6685 44.3563C76.6436 44.3563 76.6228 44.3563 76.5979 44.3605C75.2737 44.4695 73.9536 44.7963 72.6833 45.3662L72.6584 45.3746C72.5837 45.4082 72.509 45.4417 72.4342 45.4794C72.4052 45.492 72.3761 45.5087 72.3429 45.5213C72.2889 45.5464 72.235 45.5716 72.181 45.6009C72.1229 45.6302 72.0648 45.6596 72.0108 45.6889C71.9818 45.7015 71.9568 45.7183 71.9278 45.7308C69.5159 47.0131 67.515 49.121 66.39 51.8658L63.7748 58.2354C62.8241 60.5486 61.118 62.3171 59.0631 63.3647C59.0092 63.394 58.9552 63.4192 58.9012 63.4443C58.8763 63.4569 58.8556 63.4653 58.8307 63.4778C58.7933 63.4946 58.7559 63.5114 58.7144 63.5323C57.6683 64.0184 56.5392 64.3201 55.3768 64.4165H55.3395C55.2813 64.4249 55.2232 64.4291 55.161 64.4333C55.1319 64.4333 55.1028 64.4333 55.0738 64.4375C55.0323 64.4375 54.9866 64.4375 54.9451 64.4417C54.8994 64.4417 54.8538 64.4417 54.8081 64.4459C54.7832 64.4459 54.7541 64.4459 54.7292 64.4459C54.667 64.4459 54.6047 64.4459 54.5466 64.4459H54.5134C53.3469 64.4375 52.1928 64.2238 51.1052 63.8215C51.0678 63.8089 51.0346 63.7963 50.9973 63.7796C50.9724 63.7712 50.9433 63.7586 50.9184 63.7502C50.8644 63.7293 50.8105 63.7083 50.7565 63.6874C50.7358 63.679 50.715 63.6706 50.6984 63.6622C50.6403 63.6371 50.5822 63.6119 50.524 63.5868C50.5033 63.5784 50.4867 63.57 50.4659 63.5616C50.4078 63.5365 50.3538 63.5114 50.2957 63.482C50.275 63.4736 50.2542 63.4611 50.2293 63.4527C50.1753 63.4276 50.1255 63.4024 50.0716 63.3773C50.0466 63.3647 50.0217 63.3521 49.9968 63.3396C49.9512 63.3144 49.9014 63.2893 49.8557 63.2641C49.8266 63.2474 49.7976 63.2348 49.7685 63.218C49.727 63.1929 49.6855 63.1719 49.644 63.1468C49.6108 63.13 49.5817 63.1091 49.5485 63.0923C49.5111 63.0714 49.4738 63.0504 49.4364 63.0253C49.4032 63.0043 49.3658 62.9834 49.3326 62.9624C49.2994 62.9414 49.2662 62.9205 49.233 62.8995C49.1956 62.8744 49.1583 62.8534 49.1209 62.8283C49.0919 62.8073 49.0628 62.7906 49.0337 62.7696C48.9922 62.7445 48.9549 62.7152 48.9175 62.69C48.8926 62.6733 48.8635 62.6523 48.8386 62.6355C48.7971 62.6062 48.7598 62.5769 48.7183 62.5475C48.6933 62.5308 48.6684 62.5098 48.6435 62.4931C48.602 62.4637 48.5647 62.4344 48.5231 62.4009C48.4982 62.3799 48.4733 62.3632 48.4484 62.3422C48.4111 62.3129 48.3695 62.2793 48.3322 62.25C48.3073 62.2291 48.2824 62.2081 48.2575 62.1871C48.2201 62.1578 48.1827 62.1243 48.1454 62.095C48.1205 62.074 48.0914 62.0489 48.0665 62.0279C48.0333 61.9986 47.9959 61.9692 47.9627 61.9357C47.9337 61.9106 47.9046 61.8854 47.8797 61.8603C47.8465 61.8309 47.8174 61.8016 47.7842 61.7723C47.7552 61.7429 47.722 61.7136 47.6929 61.6843C47.6638 61.6591 47.6348 61.6298 47.6099 61.6047C47.5767 61.5711 47.5476 61.5418 47.5144 61.5083C47.4895 61.4831 47.4646 61.458 47.4397 61.4328C47.4065 61.3993 47.3733 61.3658 47.34 61.3281C47.3151 61.3029 47.2944 61.2778 47.2736 61.2568C47.2404 61.2191 47.2072 61.1856 47.174 61.1479C47.1532 61.1227 47.1325 61.1018 47.1117 61.0766C47.0785 61.0389 47.0453 61.0012 47.0162 60.9635C46.9955 60.9384 46.9747 60.9132 46.954 60.8923C46.9208 60.8545 46.8917 60.8168 46.8585 60.7791C46.8377 60.754 46.817 60.7288 46.7962 60.6995C46.7672 60.6618 46.7381 60.6241 46.7091 60.5864C46.6883 60.557 46.6634 60.5277 46.6426 60.5025C46.6177 60.469 46.5887 60.4313 46.5638 60.3978C46.5389 60.3643 46.5181 60.3349 46.4932 60.3014C46.4683 60.2679 46.4475 60.2343 46.4226 60.2008C46.3977 60.1631 46.3728 60.1296 46.3479 60.0919C46.3271 60.0625 46.3064 60.0332 46.2856 59.9997C46.2607 59.9578 46.2317 59.9201 46.2068 59.8781C46.1902 59.853 46.1735 59.8237 46.1569 59.7985C46.1279 59.7524 46.0988 59.7063 46.0698 59.6602C46.0573 59.6351 46.0407 59.6141 46.0283 59.589C45.9992 59.5387 45.9701 59.4884 45.9369 59.4339C45.9245 59.413 45.912 59.392 45.9037 59.3711C45.8747 59.3166 45.8414 59.2621 45.8124 59.2035C45.8041 59.1867 45.7916 59.1658 45.7833 59.149C45.7543 59.0903 45.7252 59.0358 45.692 58.9772C45.6837 58.9604 45.6712 58.9395 45.6629 58.9227C45.638 58.8682 45.609 58.8179 45.5841 58.7635C45.5716 58.7383 45.5592 58.7132 45.5509 58.6922C45.5343 58.6545 45.5177 58.6168 45.501 58.5791C45.0195 57.5189 44.7206 56.379 44.6251 55.2057V55.168C44.6168 55.1093 44.6127 55.0464 44.6085 54.9878C44.6085 54.9584 44.6085 54.9291 44.6044 54.904C44.6044 54.8579 44.6044 54.816 44.6002 54.7699C44.6002 54.7238 44.6002 54.6819 44.5961 54.6358C44.5961 54.6064 44.5961 54.5813 44.5961 54.5519C44.5961 54.4891 44.5961 54.4304 44.5961 54.3676V54.334C44.6044 53.1565 44.8161 51.9957 45.2146 50.902C45.2271 50.8643 45.2437 50.8265 45.2561 50.7888C45.2644 50.7637 45.2769 50.7385 45.2852 50.7134C45.3059 50.6589 45.3267 50.6044 45.3516 50.5458C45.3599 50.5248 45.3682 50.5081 45.3765 50.4871C45.4014 50.4284 45.4263 50.3698 45.4512 50.3069C45.4595 50.286 45.4678 50.2692 45.4761 50.2482C45.501 50.1896 45.5301 50.1309 45.555 50.0764C45.5633 50.0555 45.5758 50.0345 45.5841 50.0136C45.609 49.9591 45.6339 49.9046 45.6629 49.8543C45.6754 49.8292 45.6879 49.804 45.7003 49.7789C45.7252 49.7286 45.7501 49.6825 45.775 49.6364C45.7916 49.6071 45.8041 49.5819 45.8207 49.5526C45.8456 49.5107 45.8664 49.4646 45.8913 49.4227C45.9079 49.3892 45.9286 49.3598 45.9452 49.3263C45.966 49.2886 45.9909 49.2509 46.0117 49.2132C46.0324 49.1797 46.0532 49.1419 46.0739 49.1084C46.0947 49.0749 46.1154 49.0414 46.1362 49.0078C46.1611 48.9701 46.1819 48.9324 46.2068 48.8947C46.2275 48.8654 46.2441 48.836 46.2649 48.8025C46.2898 48.7648 46.3147 48.7229 46.3437 48.6852C46.3645 48.6558 46.3811 48.6307 46.4019 48.6014C46.4309 48.5595 46.4558 48.5217 46.4849 48.4798C46.5056 48.4547 46.5223 48.4254 46.543 48.4002C46.5721 48.3583 46.6011 48.3206 46.6302 48.2787C46.6509 48.2535 46.6675 48.2284 46.6883 48.2033C46.7174 48.1655 46.7464 48.1236 46.7796 48.0859C46.8004 48.0608 46.8211 48.0356 46.8419 48.0063C46.871 47.9686 46.9 47.9309 46.9332 47.8973C46.9581 47.868 46.9789 47.8429 47.0038 47.8135C47.0329 47.78 47.0619 47.7465 47.091 47.713C47.1159 47.6836 47.1449 47.6543 47.1698 47.625C47.1989 47.5956 47.2238 47.5621 47.2529 47.5328C47.2819 47.4992 47.311 47.4699 47.34 47.4406C47.365 47.4112 47.3899 47.3861 47.4189 47.3568C47.4521 47.3232 47.4853 47.2897 47.5144 47.2562C47.5393 47.231 47.5642 47.2059 47.5891 47.1808C47.6223 47.1472 47.6597 47.1137 47.6929 47.0802C47.7178 47.0592 47.7386 47.0341 47.7635 47.0131C47.8008 46.9796 47.8382 46.9461 47.8756 46.9126C47.9005 46.8916 47.9212 46.8707 47.9461 46.8497C47.9835 46.8162 48.0208 46.7827 48.0582 46.7491C48.0831 46.7282 48.1039 46.7072 48.1288 46.6863C48.1661 46.6527 48.2035 46.6234 48.245 46.5899C48.2699 46.5689 48.2948 46.548 48.3197 46.527C48.3571 46.4977 48.3945 46.4684 48.4318 46.439C48.4609 46.4181 48.4858 46.3971 48.5148 46.3762C48.5522 46.3468 48.5854 46.3217 48.6228 46.2965C48.6518 46.2756 48.685 46.2505 48.7141 46.2295C48.7473 46.2044 48.7805 46.1792 48.8137 46.1583C48.8469 46.1331 48.8843 46.108 48.9175 46.0828C48.9466 46.0619 48.9798 46.0409 49.0088 46.02C49.0462 45.9948 49.0877 45.9655 49.1292 45.9404C49.1583 45.9236 49.1832 45.9026 49.2122 45.8859C49.2579 45.8565 49.2994 45.8272 49.3451 45.8021C49.37 45.7853 49.3949 45.7727 49.4157 45.756C49.4655 45.7266 49.5153 45.6973 49.5651 45.668C49.5859 45.6554 49.6066 45.6428 49.6274 45.6303C49.6813 45.6009 49.7353 45.5674 49.7893 45.5381C49.81 45.5297 49.8266 45.5171 49.8474 45.5087C49.9014 45.4794 49.9595 45.4501 50.0134 45.4207C50.0342 45.4123 50.0508 45.3998 50.0716 45.3914C50.1214 45.3662 50.1753 45.3411 50.2252 45.316C50.2501 45.3034 50.275 45.2908 50.2999 45.2782C50.3331 45.2615 50.3704 45.2447 50.4037 45.228C51.4539 44.7419 52.5872 44.4359 53.7537 44.3396H53.7828C53.845 44.3312 53.9073 44.327 53.9696 44.3228C53.9945 44.3228 54.0235 44.3228 54.0484 44.3186C54.0941 44.3186 54.1398 44.3144 54.1854 44.3144C54.2269 44.3144 54.2684 44.3144 54.3141 44.3144C54.3432 44.3144 54.3722 44.3144 54.4013 44.3144C54.4594 44.3144 54.5175 44.3144 54.5756 44.3144H54.6172C55.7795 44.3228 56.9252 44.5365 58.0046 44.9346C58.0461 44.9514 58.0876 44.964 58.1291 44.9807C58.154 44.9891 58.1748 44.9975 58.1997 45.01C58.2578 45.031 58.3117 45.0561 58.3699 45.0771C59.4948 45.5464 60.541 46.2211 61.4376 47.0844C62.5252 48.1278 64.3103 47.7465 64.8831 46.3468C65.2152 45.5381 65.0409 44.5952 64.4099 43.9876C63.123 42.743 61.6286 41.7707 60.0138 41.0961C60.0138 41.0961 59.9847 41.0835 59.9681 41.0793C59.9307 41.0625 59.8975 41.05 59.8602 41.0374C59.719 40.9787 59.5737 40.9243 59.4284 40.8698L59.4077 40.8614C59.3205 40.8279 59.2292 40.7985 59.142 40.7692H59.1295C57.5355 40.2202 55.904 39.973 54.3017 40.0023C54.2684 40.0023 54.2311 40.0023 54.1979 40.0023C54.1398 40.0023 54.0858 40.0023 54.0277 40.0065C53.9613 40.0065 53.899 40.0107 53.8326 40.0149C53.7994 40.0149 53.7661 40.0149 53.7288 40.0191C52.1762 40.1113 50.6195 40.4591 49.1168 41.0877L49.096 41.0961C49.0088 41.1338 48.9217 41.1715 48.8345 41.2092C48.8096 41.2218 48.7888 41.2302 48.7639 41.2427C48.6933 41.2721 48.6269 41.3056 48.5564 41.3391C48.519 41.3559 48.4816 41.3726 48.4443 41.3936C48.3903 41.4187 48.3405 41.4439 48.2865 41.469C48.2367 41.4942 48.1869 41.5193 48.1371 41.5445L48.1163 41.557C48.0956 41.5696 48.0748 41.578 48.0541 41.5906C47.9752 41.6325 47.8922 41.6744 47.8133 41.7163C47.7884 41.7288 47.7593 41.7456 47.7344 41.7624C47.6555 41.8043 47.5808 41.8462 47.5019 41.8923C47.4729 41.909 47.4438 41.9258 47.4106 41.9426C47.34 41.9845 47.2695 42.0264 47.1989 42.0683C47.1657 42.0892 47.1283 42.1102 47.0951 42.1311C47.0329 42.173 46.9664 42.2108 46.9042 42.2527C46.8668 42.2778 46.8253 42.3029 46.7879 42.3281C46.7298 42.3658 46.6758 42.4035 46.6177 42.4412C46.5721 42.4706 46.5306 42.4999 46.4849 42.5292C46.4351 42.5628 46.3853 42.6005 46.3354 42.634C46.2856 42.6675 46.24 42.701 46.1902 42.7388C46.1445 42.7723 46.103 42.8058 46.0573 42.8351C46.0075 42.8729 45.9535 42.9106 45.9037 42.9525C45.8622 42.9818 45.8248 43.0153 45.7875 43.0447C45.7335 43.0866 45.6796 43.1285 45.6256 43.1704C45.5882 43.1997 45.555 43.2291 45.5177 43.2584C45.4637 43.3045 45.4097 43.3506 45.3558 43.3967C45.3225 43.426 45.2893 43.4553 45.2561 43.4847C45.2022 43.5308 45.1482 43.5811 45.0942 43.6272C45.061 43.6565 45.0278 43.6858 44.9946 43.7152C44.9406 43.7655 44.8908 43.8115 44.8369 43.8618C44.8036 43.8954 44.7704 43.9247 44.7372 43.9582C44.6874 44.0085 44.6376 44.0546 44.5878 44.1049C44.5546 44.1384 44.5172 44.1761 44.484 44.2097C44.4383 44.2557 44.3927 44.3018 44.347 44.3521C44.3096 44.3898 44.2723 44.4318 44.2349 44.4695C44.1934 44.5156 44.1519 44.5575 44.1104 44.6036C44.0689 44.6455 44.0315 44.6916 43.99 44.7377C43.9526 44.7796 43.9153 44.8215 43.8779 44.8634C43.8364 44.9095 43.7949 44.9598 43.7534 45.01C43.7202 45.0478 43.687 45.0897 43.6538 45.1274C43.6122 45.1777 43.5666 45.2321 43.5251 45.2866C43.496 45.3243 43.4628 45.3621 43.4337 45.3998C43.3922 45.4542 43.3466 45.5087 43.305 45.5674C43.276 45.6051 43.2469 45.6386 43.222 45.6763C43.1805 45.7308 43.139 45.7895 43.0975 45.8482C43.0684 45.8859 43.0435 45.9236 43.0145 45.9613C42.9729 46.02 42.9356 46.0744 42.8941 46.1331C42.865 46.1708 42.8401 46.2127 42.8111 46.2505C42.7737 46.3049 42.7363 46.3636 42.699 46.4181C42.6699 46.46 42.6409 46.5061 42.6159 46.548C42.5827 46.6025 42.5495 46.6527 42.5163 46.7072C42.4873 46.7533 42.4582 46.8036 42.4291 46.8497C42.4001 46.9 42.371 46.9503 42.3378 47.0006C42.3046 47.055 42.2755 47.1095 42.2423 47.164C42.2174 47.2101 42.1925 47.2562 42.1635 47.2981C42.1302 47.361 42.097 47.4196 42.0638 47.4825C42.0431 47.5244 42.0223 47.5621 41.9974 47.604C41.96 47.6711 41.9268 47.7423 41.8895 47.8093C41.8729 47.8429 41.8521 47.8806 41.8355 47.9141C41.7982 47.9895 41.7608 48.065 41.7234 48.1404C41.711 48.1697 41.6944 48.1991 41.6819 48.2326C41.6446 48.3122 41.6072 48.396 41.5698 48.4798C41.5574 48.505 41.5449 48.5343 41.5325 48.5595C41.4951 48.6433 41.4577 48.7271 41.4245 48.8151C41.4162 48.836 41.4079 48.857 41.3996 48.8779L41.3913 48.8989C41.3581 48.9785 41.3291 49.0539 41.3 49.1336C41.2875 49.1713 41.2709 49.2048 41.2585 49.2425C41.2377 49.297 41.217 49.3515 41.2004 49.4059C40.615 51.0109 40.3286 52.6704 40.3203 54.3047V54.3508C40.3203 54.4388 40.3203 54.5268 40.3203 54.6148C40.3203 54.6525 40.3203 54.6944 40.3203 54.7321C40.3203 54.7992 40.3203 54.8621 40.3286 54.9249C40.3286 54.9878 40.3328 55.0506 40.3369 55.1135C40.3369 55.1554 40.3411 55.1973 40.3452 55.2392C40.3494 55.323 40.3577 55.411 40.3618 55.4948C40.3618 55.5116 40.3618 55.5325 40.366 55.5493C40.4988 57.1752 40.9056 58.8012 41.6155 60.3601C41.6404 60.4145 41.6653 60.4732 41.6902 60.5277C41.7068 60.5612 41.7234 60.5905 41.7359 60.6241C41.7732 60.7037 41.8106 60.7833 41.8521 60.8587L41.8604 60.8755C41.8604 60.8755 41.8812 60.9132 41.8895 60.93C41.931 61.0138 41.9767 61.0976 42.0182 61.1814C42.0306 61.2066 42.0431 61.2317 42.0597 61.2568C42.1012 61.3365 42.1469 61.4161 42.1925 61.4999C42.2091 61.5292 42.2257 61.5544 42.2423 61.5837C42.2838 61.6591 42.3295 61.7304 42.371 61.8058C42.3918 61.8393 42.4084 61.8729 42.4291 61.9022C42.4707 61.9692 42.5122 62.0363 42.5537 62.1033C42.5786 62.1411 42.6035 62.1788 42.6242 62.2165C42.6616 62.2751 42.699 62.3338 42.7405 62.3925C42.7695 62.4344 42.7986 62.4763 42.8277 62.5224C42.865 62.5727 42.8982 62.6272 42.9356 62.6774C42.9688 62.7235 43.002 62.7696 43.0352 62.8199C43.0684 62.866 43.1016 62.9121 43.1348 62.9582C43.1722 63.0085 43.2096 63.0588 43.2469 63.1091C43.2801 63.151 43.3092 63.1929 43.3424 63.2306C43.3839 63.2851 43.4254 63.3354 43.4669 63.3898C43.496 63.4276 43.5292 63.4653 43.5583 63.503C43.6039 63.5575 43.6454 63.6119 43.6911 63.6664C43.7202 63.6999 43.7492 63.7377 43.7783 63.7712C43.824 63.8257 43.8696 63.8801 43.9153 63.9304C43.9443 63.9639 43.9775 63.9975 44.0066 64.031C44.0523 64.0813 44.1021 64.1358 44.1477 64.186C44.181 64.2196 44.2142 64.2573 44.2474 64.2908C44.293 64.3411 44.3387 64.3914 44.3885 64.4375C44.4259 64.4752 44.4591 64.5087 44.4965 64.5464C44.5421 64.5925 44.5878 64.6386 44.6334 64.6847C44.675 64.7224 44.7123 64.7602 44.7538 64.7979C44.7953 64.8398 44.841 64.8817 44.8825 64.9236C44.9282 64.9655 44.9697 65.0032 45.0154 65.0451C45.0569 65.0828 45.0984 65.1205 45.1399 65.1583C45.1897 65.2002 45.2354 65.2421 45.2852 65.284C45.3225 65.3175 45.3599 65.351 45.4014 65.3845C45.4554 65.4306 45.5052 65.4725 45.5592 65.5145C45.5965 65.5438 45.6339 65.5731 45.6671 65.6025C45.7211 65.6485 45.7792 65.6905 45.8331 65.7324C45.8705 65.7617 45.9037 65.7868 45.9411 65.8162C45.9992 65.8581 46.0532 65.9 46.1113 65.9461C46.1486 65.9712 46.186 66.0006 46.2234 66.0257C46.2815 66.0676 46.3354 66.1053 46.3936 66.1472C46.4309 66.1766 46.4724 66.2017 46.5098 66.231C46.5638 66.2688 46.6219 66.3065 46.6758 66.3442C46.7174 66.3735 46.763 66.4029 46.8045 66.428C46.8585 66.4615 46.9083 66.495 46.9623 66.5286C47.0079 66.5579 47.0578 66.5872 47.1076 66.6166C47.1574 66.6459 47.2072 66.6752 47.2529 66.7046C47.3068 66.7381 47.3608 66.7674 47.4148 66.801C47.4604 66.8261 47.5019 66.8512 47.5476 66.8764C47.6099 66.9099 47.668 66.9434 47.7303 66.977C47.7676 66.9979 47.8091 67.0189 47.8506 67.0398C47.9171 67.0775 47.9876 67.1111 48.0582 67.1488C48.0914 67.1655 48.1246 67.1823 48.162 67.2032C48.2367 67.241 48.3156 67.2787 48.3903 67.3164C48.4194 67.329 48.4484 67.3457 48.4775 67.3583C48.5605 67.396 48.6435 67.4337 48.7224 67.4714C48.7473 67.484 48.7722 67.4966 48.8013 67.505C48.8843 67.5427 48.9715 67.5804 49.0587 67.6139C49.0794 67.6223 49.096 67.6307 49.1168 67.6391L49.1334 67.6474C49.2122 67.681 49.2911 67.7103 49.37 67.7438C49.4032 67.7564 49.4406 67.7732 49.4738 67.7857C49.5277 67.8067 49.5859 67.8276 49.6398 67.8486C51.2339 68.4437 52.8736 68.7286 54.4885 68.737H54.5424C54.6296 68.737 54.7126 68.737 54.7998 68.737C54.8413 68.737 54.8828 68.737 54.9202 68.737C54.9825 68.737 55.0447 68.737 55.107 68.7328C55.1693 68.7328 55.2357 68.7286 55.298 68.7244C55.3353 68.7244 55.3768 68.7202 55.4142 68.716C55.5014 68.7118 55.5885 68.7035 55.6757 68.6993H55.7214C57.3362 68.561 58.951 68.1503 60.4994 67.4295C60.5534 67.4044 60.6032 67.3834 60.6572 67.3583C60.6904 67.3415 60.7236 67.3248 60.761 67.308C60.8357 67.2703 60.9146 67.2326 60.9893 67.1949L61.0059 67.1865C63.9325 65.6905 66.3651 63.1677 67.7184 59.8698L69.5201 55.4781L70.3337 53.4959C71.0353 51.7862 72.264 50.4578 73.7502 49.6197C73.8623 49.5568 73.9785 49.4939 74.0906 49.4395C74.103 49.4311 74.1155 49.4269 74.1321 49.4185C74.2317 49.3682 74.3313 49.3221 74.4351 49.276C74.4642 49.2635 74.4891 49.2509 74.5182 49.2383C74.6053 49.2006 74.6925 49.1671 74.7797 49.1336C74.8212 49.1168 74.8586 49.1042 74.9001 49.0875C74.9748 49.0581 75.0537 49.033 75.1325 49.0078C75.1824 48.9911 75.228 48.9743 75.2778 48.9617C75.3484 48.9408 75.4231 48.9198 75.4937 48.8989C75.5518 48.8821 75.6099 48.8654 75.668 48.8528C75.7345 48.836 75.8009 48.8193 75.8673 48.8067C75.9213 48.7941 75.9794 48.7815 76.0334 48.769C76.1081 48.7522 76.1828 48.7396 76.2534 48.7271C76.2949 48.7187 76.3364 48.7103 76.3821 48.7061C76.4734 48.6935 76.5647 48.681 76.656 48.6684C76.6851 48.6684 76.7142 48.66 76.7432 48.66C76.8511 48.6475 76.9591 48.6391 77.067 48.6307C77.0795 48.6307 77.0919 48.6307 77.1085 48.6307C78.1131 48.572 79.1136 48.7103 80.0559 49.0246L80.0808 49.033C80.1887 49.0707 80.2967 49.1084 80.4046 49.1503C80.4212 49.1587 80.4378 49.1629 80.4544 49.1713C80.5499 49.209 80.6495 49.2509 80.745 49.2928C80.7658 49.3012 80.7865 49.3138 80.8073 49.3221C80.8944 49.364 80.9816 49.4018 81.0688 49.4478C81.0896 49.4562 81.1103 49.4688 81.1311 49.4772C81.2224 49.5233 81.3137 49.5736 81.405 49.6239C81.4217 49.6322 81.4424 49.6448 81.459 49.6532C81.5503 49.7077 81.6417 49.7621 81.733 49.8208C81.7496 49.8334 81.7662 49.8418 81.7828 49.8543C81.8741 49.913 81.9655 49.9759 82.0526 50.0387C82.0692 50.0471 82.0817 50.0597 82.0983 50.0681C82.1896 50.1309 82.2768 50.198 82.364 50.265C82.3764 50.2734 82.3889 50.286 82.4013 50.2943C82.4885 50.3656 82.5757 50.4368 82.6629 50.5081C82.6753 50.5164 82.6878 50.529 82.6961 50.5374C82.7833 50.6128 82.8663 50.6883 82.9493 50.7679C82.9576 50.7763 82.9701 50.7888 82.9784 50.7972C83.0614 50.8768 83.1444 50.9606 83.2233 51.0445L83.2482 51.0696C83.3312 51.1576 83.4101 51.2456 83.489 51.3378L83.5056 51.3587C83.5886 51.4551 83.6675 51.5515 83.7422 51.6521L83.7505 51.6605C83.9913 51.9748 84.2113 52.31 84.4105 52.6662C84.4728 52.7793 84.5351 52.8967 84.589 53.0098C84.5973 53.0224 84.6015 53.0392 84.6098 53.0517C84.6596 53.1523 84.7053 53.2529 84.7468 53.3535C84.7592 53.3828 84.7717 53.4121 84.7841 53.4415C84.8215 53.5295 84.8547 53.6175 84.8879 53.7013C84.9045 53.7432 84.917 53.7851 84.9336 53.8228C84.9627 53.8982 84.9876 53.9778 85.0125 54.0533C85.0291 54.1036 85.0457 54.1538 85.0581 54.1999C85.0789 54.2712 85.0996 54.3424 85.1204 54.4179C85.137 54.4765 85.1536 54.5394 85.1661 54.598C85.1827 54.6651 85.1993 54.728 85.2117 54.795C85.2242 54.8537 85.2366 54.9081 85.2491 54.9668C85.2657 55.0381 85.2781 55.1135 85.2906 55.1889C85.2989 55.2308 85.3072 55.2769 85.3114 55.3188C85.3238 55.411 85.3363 55.5032 85.3487 55.5954C85.3487 55.6247 85.357 55.6541 85.3612 55.6834C85.3736 55.7924 85.3819 55.9013 85.3902 56.0061C85.3902 56.0186 85.3902 56.0354 85.3902 56.048C85.4483 57.0621 85.3114 58.072 85 59.0233L84.9917 59.0484C84.9543 59.1574 84.917 59.2663 84.8755 59.3711C84.8672 59.3879 84.863 59.4088 84.8547 59.4256C84.8174 59.522 84.7758 59.6183 84.7343 59.7147C84.726 59.7357 84.7136 59.7608 84.7053 59.7818C84.6679 59.8698 84.6264 59.9536 84.5849 60.0416C84.5724 60.0625 84.5641 60.0877 84.5517 60.1086C84.506 60.2008 84.4562 60.2888 84.4064 60.381C84.3939 60.402 84.3856 60.4187 84.3732 60.4397C84.3192 60.5319 84.2652 60.6241 84.2113 60.7163C84.1988 60.733 84.1905 60.7498 84.1781 60.7707C84.12 60.8629 84.0618 60.9509 83.9996 61.0431C83.9871 61.0599 83.9788 61.0725 83.9664 61.0892C83.9041 61.1814 83.8377 61.2694 83.7712 61.3574C83.7588 61.37 83.7505 61.3868 83.738 61.3993C83.6716 61.4873 83.601 61.5753 83.5263 61.6591C83.518 61.6717 83.5056 61.6843 83.4973 61.6969C83.4225 61.7849 83.3478 61.8687 83.2689 61.9483C83.2606 61.9609 83.2482 61.9692 83.2399 61.9818C83.161 62.0656 83.078 62.1494 82.995 62.2291C82.9867 62.2374 82.9784 62.2458 82.9659 62.2542C82.8787 62.338 82.7916 62.4176 82.7002 62.4972L82.6795 62.514C82.584 62.5936 82.4885 62.6733 82.3889 62.7529L82.3806 62.7613C82.0692 63.0043 81.7413 63.2264 81.3884 63.4276C81.2764 63.4904 81.1601 63.5533 81.048 63.6077C81.0356 63.6161 81.019 63.6203 81.0065 63.6287C80.9069 63.679 80.8073 63.7251 80.7076 63.7712C80.6786 63.7837 80.6495 63.7963 80.6246 63.8089C80.5374 63.8466 80.4503 63.8801 80.3631 63.9137C80.3216 63.9304 80.2842 63.943 80.2427 63.9598C80.168 63.9891 80.0891 64.0142 80.0144 64.0394C79.9646 64.0561 79.9189 64.0729 79.8691 64.0855C79.7985 64.1064 79.7238 64.1274 79.6532 64.1483C79.5951 64.1651 79.537 64.1819 79.4789 64.1944C79.4125 64.2112 79.346 64.2279 79.2796 64.2405C79.2256 64.2531 79.1717 64.2657 79.1136 64.274C79.0388 64.2908 78.9641 64.3034 78.8894 64.316C78.8479 64.3243 78.8064 64.3285 78.7649 64.3369C78.6735 64.3495 78.5822 64.362 78.4867 64.3746C78.4577 64.3746 78.4286 64.383 78.3996 64.383C78.2916 64.3956 78.1837 64.404 78.0758 64.4123C78.0633 64.4123 78.0509 64.4123 78.0384 64.4123C77.0338 64.471 76.0334 64.3327 75.0869 64.0184L75.062 64.01C74.954 63.9723 74.8461 63.9346 74.7382 63.8927C74.7216 63.8843 74.705 63.8801 74.6884 63.8718C74.103 63.6371 73.5468 63.3354 73.0279 62.9624C71.9153 62.162 70.3545 62.6313 69.8314 63.9053C69.4495 64.8398 69.7608 65.9167 70.5786 66.4992C71.4006 67.0859 72.2848 67.5636 73.2147 67.924C73.2437 67.9366 73.2686 67.945 73.2977 67.9575C73.36 67.9827 73.4181 68.0036 73.4803 68.0246C73.5343 68.0455 73.5924 68.0623 73.6464 68.0833C73.6796 68.0958 73.7128 68.1042 73.7419 68.1168C73.8207 68.1419 73.8955 68.1671 73.9743 68.1922L73.9992 68.2006C75.3235 68.6155 76.6726 68.7873 78.001 68.737C78.0259 68.737 78.0509 68.737 78.0799 68.737C78.1463 68.737 78.2086 68.7328 78.275 68.7286C78.3414 68.7286 78.4079 68.7202 78.4743 68.716C78.4992 68.716 78.5241 68.716 78.549 68.7118C79.8732 68.6029 81.1933 68.276 82.4636 67.7061L82.4844 67.6977C82.5591 67.6642 82.6338 67.6307 82.7085 67.593C82.7376 67.5804 82.7666 67.5636 82.7957 67.5511C82.8497 67.5259 82.9036 67.4966 82.9576 67.4714C83.0157 67.4421 83.0697 67.4128 83.1278 67.3834C83.1569 67.3667 83.1859 67.3541 83.2108 67.3373C83.7505 67.0482 84.2735 66.7213 84.7675 66.3526C84.8464 66.2939 84.9211 66.231 85 66.1724C85.0125 66.164 85.0249 66.1514 85.0374 66.143C85.0996 66.0927 85.1661 66.0425 85.2283 65.988C85.2491 65.9712 85.2698 65.9545 85.2906 65.9377C85.3446 65.8916 85.3985 65.8455 85.4525 65.7994C85.4774 65.7785 85.5023 65.7533 85.5314 65.7324C85.5812 65.6905 85.6268 65.6485 85.6725 65.6066C85.7016 65.5815 85.7306 65.5522 85.7597 65.527C85.8012 65.4851 85.8469 65.4474 85.8884 65.4055C85.9216 65.3762 85.9506 65.3468 85.9839 65.3133C86.0212 65.2756 86.0627 65.2379 86.1001 65.196C86.1333 65.1624 86.1665 65.1289 86.1956 65.0954C86.2329 65.0577 86.2703 65.02 86.3035 64.9822C86.3367 64.9487 86.3699 64.911 86.4031 64.8775C86.4363 64.8398 86.4695 64.8021 86.5069 64.7685C86.5401 64.7308 86.5733 64.6931 86.6065 64.6554C86.6397 64.6177 86.6688 64.5841 86.702 64.5464C86.7352 64.5087 86.7684 64.4668 86.8016 64.4249C86.8307 64.3914 86.8598 64.3537 86.8888 64.316C86.922 64.274 86.9594 64.2321 86.9926 64.1902C87.0217 64.1567 87.0466 64.1232 87.0756 64.0855C87.1088 64.0394 87.1462 63.9933 87.1794 63.9472C87.2043 63.9137 87.2292 63.8801 87.2541 63.8466C87.2915 63.7963 87.3247 63.746 87.3621 63.6957C87.3828 63.6664 87.4036 63.6371 87.4285 63.6036C87.4658 63.5491 87.5032 63.4946 87.5406 63.4401C87.5572 63.415 87.5779 63.3856 87.5945 63.3605C87.636 63.2976 87.6776 63.2348 87.7149 63.1761C87.7274 63.1552 87.7398 63.1342 87.7564 63.1133C87.8021 63.042 87.8478 62.9708 87.8893 62.8954C87.8976 62.8828 87.9059 62.8702 87.91 62.8576C88.2795 62.2416 88.595 61.5921 88.8482 60.9216L88.8648 60.93Z" fill="url(#paint0_linear_1145_1064)"/>
<path d="M76.754 73.5331C76.754 72.3412 75.7978 71.375 74.6182 71.375C73.4387 71.375 72.4824 72.3412 72.4824 73.5331V77.1664C72.4824 78.3583 73.4387 79.3245 74.6182 79.3245C75.7978 79.3245 76.754 78.3583 76.754 77.1664V73.5331Z" fill="#12CCE4"/>
<path d="M61.4357 73.5331C61.4357 72.3412 60.4794 71.375 59.2999 71.375C58.1203 71.375 57.1641 72.3412 57.1641 73.5331V77.1664C57.1641 78.3583 58.1203 79.3245 59.2999 79.3245C60.4794 79.3245 61.4357 78.3583 61.4357 77.1664V73.5331Z" fill="#12CCE4"/>
<path d="M69.0978 71.037C69.0978 69.8451 68.1416 68.8789 66.962 68.8789C65.7824 68.8789 64.8262 69.8451 64.8262 71.037V74.6703C64.8262 75.8622 65.7824 76.8284 66.962 76.8284C68.1416 76.8284 69.0978 75.8622 69.0978 74.6703V71.037Z" fill="#12CCE4"/>
<path d="M3.25303 105.351L2.99085 105.365C3.01975 104.649 3.10805 103.997 3.25303 103.407V105.351ZM6.63912 101.475C5.67783 101.774 4.87394 102.263 4.25303 102.95V101.18C4.85319 100.317 5.58483 99.6659 6.44868 99.2165C7.33033 98.7577 8.24284 98.496 9.18605 98.4281V101.041C8.29525 101.08 7.44572 101.224 6.63912 101.475ZM3.25303 98.4789V100.877C3.19767 100.963 3.14349 101.051 3.09048 101.141L3.09019 101.141C2.4025 102.307 2.04433 103.738 1.98819 105.42L1.98035 105.42V105.894C1.98035 105.895 1.98035 105.896 1.98035 105.897H2.48035H2.48052L2.50732 106.393L3.25303 106.353V114.399H0.5V98.4789H3.25303Z" fill="white" stroke="white"/>
<path d="M17.4546 114.797C15.677 114.757 14.3459 114.326 13.4078 113.56C12.4367 112.766 11.9316 111.646 11.9316 110.124C11.9316 108.486 12.4689 107.303 13.5001 106.49C14.5559 105.658 16.0668 105.21 18.1016 105.21H21.7903C21.8135 105.518 21.8254 105.848 21.8254 106.198H21.8253L21.8254 106.207L21.843 107.12H19.2783C17.766 107.12 16.5843 107.325 15.8571 107.836L15.8556 107.837C15.1242 108.355 14.7559 109.102 14.7559 110.021C14.7559 110.833 15.0955 111.499 15.7527 111.966C16.3913 112.42 17.2411 112.618 18.2379 112.618C19.147 112.618 19.9652 112.401 20.6695 111.948C21.1624 111.632 21.5787 111.241 21.9133 110.777L21.9543 112.909C21.9277 112.947 21.9007 112.985 21.8733 113.022C21.0191 114.181 19.6754 114.797 17.7332 114.797H17.4546ZM22.983 114.394L22.9601 113.2C23.824 111.817 24.2343 110.033 24.2343 107.889V107.389H23.8972L23.8658 104.704L23.86 104.21H23.3658H22.6787C22.6169 103.837 22.5353 103.49 22.4332 103.17C22.1651 102.331 21.7355 101.651 21.1274 101.17C20.4998 100.674 19.685 100.453 18.7395 100.453C17.8818 100.453 17.1053 100.638 16.4177 101.023C15.8342 101.349 15.3445 101.817 14.9422 102.411L12.5241 101.556C12.8349 101.039 13.2061 100.544 13.6413 100.073C14.1926 99.4763 14.8913 98.9897 15.7506 98.6205C16.5901 98.2597 17.6157 98.0703 18.8386 98.0703C20.3879 98.0703 21.6415 98.3621 22.6314 98.9189C23.6168 99.4731 24.3568 100.293 24.8511 101.395C25.3501 102.51 25.6125 103.911 25.6125 105.623V114.394H22.983ZM22.8676 108.389H23.2261C23.1972 109.261 23.0915 110.044 22.9128 110.743L22.8676 108.389ZM22.8716 105.21L22.894 107.12H22.8432L22.8254 106.193C22.8253 105.851 22.8145 105.523 22.7929 105.21H22.8716Z" fill="white" stroke="white"/>
<path d="M33.393 114.393H30.6709L30.703 98.4727H33.425L33.393 114.393Z" fill="white" stroke="white"/>
<path d="M41.3736 98.4759L41.5035 100.194C41.3051 100.533 41.1277 100.898 40.9709 101.287C40.427 102.636 40.1636 104.232 40.1636 106.059V106.559H40.6636H41.5725V114.396H38.8164V98.4759H41.3736ZM41.5725 102.636V105.559H41.1707C41.2022 104.472 41.3377 103.499 41.5725 102.636ZM42.7244 102.056C42.6719 102.121 42.6213 102.188 42.5725 102.256V101.089V101.07L42.5711 101.052L42.5251 100.442C42.9192 99.8368 43.3887 99.3503 43.9306 98.9744C44.7959 98.3742 45.8328 98.0664 47.0642 98.0664C48.9894 98.0664 50.409 98.6532 51.3991 99.7758L51.3995 99.7763C52.3393 100.839 52.8773 102.499 52.9296 104.834L50.1686 105.581C50.1264 104.497 49.9733 103.599 49.6912 102.912C49.359 102.103 48.8648 101.483 48.1933 101.121L48.1923 101.121C47.5605 100.782 46.8369 100.621 46.0343 100.621C44.6556 100.597 43.5283 101.064 42.7244 102.056ZM50.1808 106.614L52.9338 105.869V114.393H50.1808V106.614Z" fill="white" stroke="white"/>
<path d="M32.0488 94.7607C31.445 94.7607 30.9248 94.5418 30.4913 94.1011C30.0547 93.6603 29.8379 93.1383 29.8379 92.5288C29.8379 91.9192 30.0547 91.4003 30.4913 90.9721C30.9279 90.5438 31.445 90.3281 32.0488 90.3281C32.6527 90.3281 33.1729 90.5438 33.6064 90.9721C34.043 91.4003 34.2598 91.9192 34.2598 92.5288C34.2598 93.1383 34.043 93.6635 33.6064 94.1011C33.1698 94.5387 32.6496 94.7607 32.0488 94.7607Z" fill="#12CCE4"/>
<path d="M59.5308 98.7196L59.6327 100.618C59.4628 100.923 59.3093 101.248 59.1719 101.591C58.6285 102.949 58.3651 104.55 58.3651 106.378V106.878H58.8651H59.6719V114.64H57.9902V98.7196H59.5308ZM59.6719 103.357V105.878H59.3722C59.3988 104.959 59.4996 104.119 59.6719 103.357ZM61.0004 101.62C60.8827 101.771 60.7733 101.93 60.6719 102.095V101.333V101.32L60.6711 101.306L60.6474 100.863C61.0605 100.19 61.5632 99.653 62.1518 99.2424C63.0264 98.6322 64.1019 98.3164 65.402 98.3164C67.3248 98.3164 68.7856 98.9085 69.8442 100.051L69.8447 100.051C70.2722 100.511 70.619 101.077 70.8785 101.754C70.453 102.879 70.2137 104.165 70.1515 105.604L69.7449 105.758C69.6968 104.396 69.5059 103.286 69.1461 102.456C68.7319 101.501 68.1377 100.79 67.3307 100.396C66.5813 100.03 65.7459 99.8546 64.8322 99.8546C63.2231 99.8546 61.9241 100.437 61.0009 101.619L61.0004 101.62ZM72.7699 101.621C72.5384 101.919 72.3385 102.246 72.1692 102.601C72.1065 102.316 72.0325 102.041 71.947 101.778C72.4259 100.663 73.0927 99.8261 73.9354 99.2437C74.8202 98.6323 75.9029 98.3164 77.203 98.3164C79.1021 98.3164 80.5516 98.9072 81.6147 100.051C82.6193 101.132 83.1857 102.795 83.2361 105.118L81.5456 105.759C81.496 104.396 81.2991 103.284 80.9299 102.452C80.5057 101.497 79.9023 100.789 79.1016 100.397L79.1007 100.396C78.3513 100.03 77.5159 99.8546 76.6022 99.8546C74.9931 99.8546 73.6942 100.437 72.7709 101.619L72.7699 101.621ZM71.1752 105.216C71.211 104.714 71.2707 104.238 71.3538 103.787C71.4022 104.204 71.4296 104.647 71.4353 105.117L71.1752 105.216ZM69.7572 106.824L70.1351 106.68V106.878H70.6351H71.4388V114.64H69.7572V106.978V106.824ZM81.5582 106.824L83.2398 106.186V114.64H81.5582V106.824Z" fill="white" stroke="white"/>
<path d="M89.0646 106.82L89.0651 106.82C90.0734 106.003 91.529 105.562 93.4944 105.562H97.648C97.6632 105.776 97.6749 105.997 97.6829 106.226C97.6829 106.226 97.6829 106.226 97.6829 106.227L97.701 106.829H94.0982C92.5066 106.829 91.2507 107.087 90.4541 107.714C89.654 108.343 89.2754 109.244 89.2754 110.339C89.2754 111.358 89.6585 112.202 90.4394 112.814L90.4396 112.814C91.2042 113.413 92.2347 113.683 93.4634 113.683C94.5231 113.683 95.4709 113.44 96.2789 112.928C96.9202 112.524 97.4411 111.999 97.8377 111.361L97.8894 113.076C97.8606 113.113 97.8314 113.149 97.8018 113.186C96.7975 114.413 95.3428 115.05 93.3612 115.05H93.3582C91.4417 115.05 90.0214 114.61 89.0348 113.795C88.0603 112.99 87.5566 111.871 87.5566 110.373C87.5566 108.78 88.074 107.62 89.0646 106.82ZM98.6823 106.192C98.6748 105.977 98.6642 105.767 98.6504 105.562H98.8934V106.829H98.7015L98.6824 106.194L98.6823 106.192ZM98.8377 111.345L98.752 108.504H99.3547C99.3137 109.576 99.1394 110.52 98.8377 111.345ZM99.3934 104.562H98.5524C98.4633 103.888 98.3318 103.284 98.1554 102.754L98.1551 102.753C97.8387 101.808 97.34 101.059 96.6349 100.545C95.92 100.023 95.0004 99.789 93.9279 99.789C92.856 99.789 91.9809 99.994 91.1921 100.425C90.514 100.796 89.9505 101.337 89.4972 102.032L88.0441 101.433C88.3867 100.892 88.7851 100.414 89.2375 99.9975C89.8118 99.4695 90.4921 99.058 91.2852 98.7599C92.0699 98.468 92.9602 98.3164 93.9589 98.3164C95.4372 98.3164 96.6279 98.6071 97.5591 99.1593C98.4857 99.7087 99.1829 100.527 99.6503 101.644C100.119 102.772 100.367 104.209 100.367 105.969V114.64H98.9371L98.8994 113.391C99.8896 111.969 100.364 110.161 100.364 108.004V107.504H99.8934V107.329V105.062V104.562H99.3934Z" fill="white" stroke="white"/>
<path d="M107.307 91.9531V105.721L105.663 107.493L105.625 107.533V91.9531H107.307ZM105.625 114.641V108.132L105.661 108.171L107.239 109.888V110.974L107.307 110.901V114.641H105.625ZM115.165 98.7238H117.19L112.125 104.208L111.471 103.252L111.255 102.937L115.165 98.7238ZM109.947 105.481L111 104.336L111.429 104.962L110.363 106.116L109.947 105.481ZM115.954 114.641L110.929 106.978L112.009 105.808L118.056 114.641H115.954ZM108.897 105.703L109.664 106.874L108.307 108.344V106.114L108.81 105.571L108.897 105.703ZM106.71 107.835L107.307 107.191V108.484L106.71 107.835Z" fill="white" stroke="white"/>
<path d="M123.564 98.718V101.108C123.533 101.158 123.501 101.208 123.47 101.259C122.714 102.499 122.357 104.083 122.357 105.967V106.467H122.857H122.86H122.888L122.915 106.464L123.564 106.392V114.638H121.883V98.718H123.564ZM126.997 100.711C126.017 101.067 125.203 101.648 124.564 102.454V101.409C125.173 100.53 125.913 99.8726 126.79 99.4263L126.791 99.426C127.653 98.9856 128.555 98.7344 129.501 98.6694V100.204C128.638 100.251 127.805 100.419 126.997 100.711L126.997 100.711ZM123.564 103.776V105.386L123.369 105.407C123.394 104.818 123.46 104.275 123.564 103.776Z" fill="white" stroke="white"/>
<defs>
<linearGradient id="paint0_linear_1145_1064" x1="40.3203" y1="54.3718" x2="89.6784" y2="54.3718" gradientUnits="userSpaceOnUse">
<stop stop-color="#FF6B00"/>
<stop offset="1" stop-color="#ED1E79"/>
</linearGradient>
</defs>
</svg>
