<svg width="25" height="24" viewBox="0 0 25 24" fill="none" xmlns="http://www.w3.org/2000/svg">
<g clip-path="url(#clip0_1145_1499)">
<path d="M23.9695 17.289C23.803 16.8345 23.485 16.5915 23.1235 16.3905C23.0636 16.3555 23.002 16.3235 22.939 16.2945L22.6105 16.128C21.4825 15.5295 20.602 14.775 19.9915 13.881C19.8179 13.6296 19.6673 13.363 19.5415 13.0845C19.4905 12.9345 19.4935 12.8505 19.5295 12.774C19.5671 12.7144 19.6166 12.6634 19.675 12.624C19.8685 12.495 20.068 12.3645 20.203 12.2775C20.446 12.1215 20.6365 11.997 20.7595 11.91C21.223 11.586 21.547 11.241 21.7495 10.857C21.8906 10.5914 21.9729 10.2985 21.9908 9.99827C22.0086 9.69803 21.9616 9.39747 21.853 9.117C21.5455 8.31 20.7835 7.809 19.8595 7.809C19.6127 7.8085 19.367 7.84129 19.129 7.9065C19.138 7.3545 19.126 6.771 19.0765 6.198C18.9025 4.182 18.196 3.126 17.461 2.283C16.9898 1.75528 16.4349 1.3088 15.8185 0.9615C14.701 0.324 13.435 0 12.0535 0C10.6735 0 9.41351 0.324 8.29601 0.9615C7.67801 1.3095 7.12301 1.7565 6.65051 2.286C5.91551 3.129 5.21051 4.1865 5.03501 6.201C4.98551 6.774 4.97501 7.359 4.98101 7.908C4.743 7.84281 4.49728 7.81002 4.25051 7.8105C3.32801 7.8105 2.56451 8.313 2.25851 9.12C2.14929 9.40049 2.10174 9.7012 2.11908 10.0017C2.13642 10.3022 2.21825 10.5954 2.35901 10.8615C2.56301 11.2455 2.88701 11.5905 3.34901 11.913C3.47201 12 3.66401 12.123 3.90551 12.282L4.41401 12.6135C4.47926 12.6567 4.53491 12.7129 4.57751 12.7785C4.61651 12.858 4.61801 12.9435 4.55951 13.104C4.43546 13.3766 4.28737 13.6377 4.11701 13.884C3.52001 14.7585 2.66501 15.4995 1.57301 16.092C0.995509 16.398 0.394009 16.602 0.140509 17.292C-0.0514914 17.814 0.0745086 18.4065 0.560509 18.9045C0.739009 19.092 0.946009 19.2495 1.17401 19.3695C1.64774 19.6298 2.15147 19.8312 2.67401 19.9695C2.78188 19.9971 2.88432 20.0428 2.97701 20.1045C3.15401 20.2605 3.13001 20.4945 3.36551 20.8365C3.48401 21.0135 3.63551 21.1665 3.80951 21.2865C4.30451 21.63 4.86101 21.651 5.45201 21.6735C5.98451 21.6945 6.58901 21.7185 7.27751 21.9435C7.56251 22.0395 7.86101 22.2225 8.20451 22.4355C9.02951 22.9425 10.162 23.6385 12.0535 23.6385C13.9465 23.6385 15.0835 22.9395 15.9175 22.4295C16.258 22.2195 16.5535 22.0395 16.831 21.948C17.521 21.72 18.1255 21.696 18.658 21.6765C19.2475 21.654 19.804 21.6315 20.3005 21.2895C20.5072 21.1449 20.6793 20.9564 20.8045 20.7375C20.9755 20.4495 20.9695 20.247 21.13 20.1075C21.217 20.0483 21.3134 20.0042 21.415 19.977C21.945 19.8382 22.4558 19.6347 22.936 19.371C23.176 19.2405 23.395 19.071 23.5795 18.867L23.5855 18.8595C24.0415 18.372 24.1555 17.796 23.9695 17.289V17.289ZM22.288 18.192C21.262 18.759 20.5795 18.6975 20.0485 19.0395C19.5985 19.329 19.8655 19.9545 19.5385 20.1795C19.135 20.4585 17.947 20.1615 16.411 20.6685C15.1435 21.087 14.335 22.2915 12.0565 22.2915C9.77801 22.2915 8.98901 21.09 7.70051 20.6655C6.16751 20.1585 4.97651 20.4555 4.57451 20.178C4.24751 19.953 4.51301 19.326 4.06301 19.0365C3.53201 18.6945 2.84951 18.756 1.82501 18.192C1.17101 17.832 1.54151 17.607 1.75901 17.502C5.47601 15.7035 6.06851 12.927 6.09401 12.72C6.12701 12.471 6.16151 12.2745 5.88701 12.021C5.62151 11.775 4.44401 11.046 4.11701 10.818C3.57701 10.44 3.33701 10.0635 3.51401 9.6C3.63701 9.279 3.93551 9.1575 4.24901 9.1575C4.3484 9.15794 4.44747 9.169 4.54451 9.1905C5.13851 9.3195 5.71451 9.618 6.04751 9.6975C6.08801 9.708 6.12851 9.7125 6.17051 9.714C6.34751 9.714 6.41051 9.624 6.39851 9.4215C6.35951 8.772 6.26801 7.506 6.37001 6.3225C6.51101 4.6965 7.03601 3.8895 7.65851 3.177C7.95851 2.8335 9.36401 1.347 12.0535 1.347C14.7415 1.347 16.1515 2.8275 16.45 3.1695C17.074 3.882 17.599 4.689 17.7385 6.3165C17.8405 7.4985 17.752 8.7645 17.71 9.414C17.695 9.627 17.761 9.7065 17.938 9.7065C17.9795 9.70637 18.0207 9.70134 18.061 9.6915C18.394 9.6105 18.9715 9.312 19.564 9.1845C19.661 9.16229 19.76 9.15072 19.8595 9.15C20.1745 9.15 20.473 9.273 20.5945 9.5925C20.77 10.056 20.5345 10.4325 19.993 10.8105C19.666 11.0385 18.4885 11.7675 18.223 12.0135C17.947 12.267 17.983 12.4635 18.0145 12.7125C18.0415 12.9225 18.634 15.699 22.3495 17.496C22.57 17.6055 22.9405 17.829 22.288 18.192V18.192Z" fill="white"/>
</g>
<defs>
<clipPath id="clip0_1145_1499">
<rect width="24" height="24" fill="white" transform="translate(0.0546875)"/>
</clipPath>
</defs>
</svg>
