<svg width="25" height="24" viewBox="0 0 25 24" fill="none" xmlns="http://www.w3.org/2000/svg">
<g clip-path="url(#clip0_1145_1497)">
<path d="M13.5547 0H16.5247C16.7407 1.0725 17.3347 2.4255 18.3772 3.768C19.3972 5.0835 20.7502 6 22.5547 6V9C19.9252 9 17.9497 7.779 16.5547 6.2565V16.5C16.5547 17.9834 16.1148 19.4334 15.2907 20.6668C14.4666 21.9001 13.2953 22.8614 11.9248 23.4291C10.5544 23.9968 9.04637 24.1453 7.59151 23.8559C6.13666 23.5665 4.80028 22.8522 3.75139 21.8033C2.7025 20.7544 1.98819 19.418 1.6988 17.9632C1.40941 16.5083 1.55794 15.0003 2.12559 13.6299C2.69325 12.2594 3.65455 11.0881 4.88791 10.264C6.12128 9.43987 7.57133 9 9.05469 9V12C8.16468 12 7.29465 12.2639 6.55462 12.7584C5.8146 13.2529 5.23783 13.9557 4.89723 14.7779C4.55664 15.6002 4.46752 16.505 4.64116 17.3779C4.81479 18.2508 5.24337 19.0526 5.87271 19.682C6.50205 20.3113 7.30387 20.7399 8.17679 20.9135C9.0497 21.0872 9.9545 20.9981 10.7768 20.6575C11.599 20.3169 12.3018 19.7401 12.7963 19.0001C13.2908 18.26 13.5547 17.39 13.5547 16.5V0Z" fill="white"/>
</g>
<defs>
<clipPath id="clip0_1145_1497">
<rect width="24" height="24" fill="white" transform="translate(0.0546875)"/>
</clipPath>
</defs>
</svg>
